<svg xmlns="http://www.w3.org/2000/svg" width="13" height="15" viewBox="0 0 13 15">
  <path id="Icon_awesome-calendar" data-name="Icon awesome-calendar" d="M.348,5.625h12.3A.351.351,0,0,1,13,5.977v7.617A1.4,1.4,0,0,1,11.607,15H1.393A1.4,1.4,0,0,1,0,13.594V5.977A.351.351,0,0,1,.348,5.625ZM13,4.336V3.281a1.4,1.4,0,0,0-1.393-1.406H10.214V.352A.351.351,0,0,0,9.866,0H8.705a.351.351,0,0,0-.348.352V1.875H4.643V.352A.351.351,0,0,0,4.295,0H3.134a.351.351,0,0,0-.348.352V1.875H1.393A1.4,1.4,0,0,0,0,3.281V4.336a.351.351,0,0,0,.348.352h12.3A.351.351,0,0,0,13,4.336Z" fill="#1c1c1c"/>
</svg>
