<?xml version="1.0" encoding="UTF-8"?>
<svg xmlns="http://www.w3.org/2000/svg" xmlns:xlink="http://www.w3.org/1999/xlink" viewBox="0 0 30 30" width="30px" height="30px">
<g id="surface25333160">
<path style=" stroke:none;fill-rule:nonzero;fill:rgb(100%,100%,100%);fill-opacity:1;" d="M 15 1.800781 C 7.710938 1.800781 1.800781 7.710938 1.800781 15 C 1.800781 21.617188 6.675781 27.082031 13.027344 28.035156 L 13.027344 18.5 L 9.761719 18.5 L 9.761719 15.027344 L 13.027344 15.027344 L 13.027344 12.71875 C 13.027344 8.898438 14.890625 7.21875 18.066406 7.21875 C 19.589844 7.21875 20.394531 7.332031 20.773438 7.382812 L 20.773438 10.414062 L 18.605469 10.414062 C 17.257812 10.414062 16.785156 11.691406 16.785156 13.132812 L 16.785156 15.027344 L 20.738281 15.027344 L 20.203125 18.5 L 16.785156 18.5 L 16.785156 28.066406 C 23.230469 27.191406 28.199219 21.683594 28.199219 15 C 28.199219 7.710938 22.289062 1.800781 15 1.800781 Z M 15 1.800781 "/>
</g>
</svg>
