<?xml version="1.0" encoding="UTF-8"?>
<svg xmlns="http://www.w3.org/2000/svg" xmlns:xlink="http://www.w3.org/1999/xlink" viewBox="0 0 16 16" width="16px" height="16px">
<g id="surface25243870">
<path style=" stroke:none;fill-rule:nonzero;fill:rgb(40.000001%,40.000001%,40.000001%);fill-opacity:1;" d="M 7.105469 3.070312 C 5 3.070312 3.296875 4.773438 3.296875 6.878906 C 3.296875 8.984375 5 10.6875 7.105469 10.6875 C 7.855469 10.6875 8.550781 10.46875 9.140625 10.09375 L 11.890625 12.84375 L 12.84375 11.890625 L 10.128906 9.183594 C 10.617188 8.542969 10.910156 7.75 10.910156 6.878906 C 10.910156 4.773438 9.210938 3.070312 7.105469 3.070312 Z M 7.105469 3.96875 C 8.714844 3.96875 10.015625 5.265625 10.015625 6.878906 C 10.015625 8.492188 8.714844 9.792969 7.105469 9.792969 C 5.492188 9.792969 4.191406 8.492188 4.191406 6.878906 C 4.191406 5.265625 5.492188 3.96875 7.105469 3.96875 Z M 7.105469 3.96875 "/>
</g>
</svg>
