<svg xmlns="http://www.w3.org/2000/svg" xmlns:xlink="http://www.w3.org/1999/xlink" width="1392" height="312.998" viewBox="0 0 1392 312.998">
  <defs>
    <linearGradient id="linear-gradient" x1="0.5" x2="0.032" y2="0.838" gradientUnits="objectBoundingBox">
      <stop offset="0" stop-color="#273153"/>
      <stop offset="1" stop-color="#355a8d"/>
    </linearGradient>
    <linearGradient id="linear-gradient-2" x1="0.314" y1="0.244" x2="0.95" y2="0.981" gradientUnits="objectBoundingBox">
      <stop offset="0" stop-color="#421343"/>
      <stop offset="1" stop-color="#873787"/>
    </linearGradient>
    <linearGradient id="linear-gradient-3" x2="0.703" y2="0.765" gradientUnits="objectBoundingBox">
      <stop offset="0" stop-color="#5167c7"/>
      <stop offset="1" stop-color="#101121"/>
    </linearGradient>
    <linearGradient id="linear-gradient-4" x1="0.978" x2="0.5" y2="1" gradientUnits="objectBoundingBox">
      <stop offset="0" stop-color="#916ec8"/>
      <stop offset="1" stop-color="#25162d"/>
    </linearGradient>
    <linearGradient id="linear-gradient-5" x1="0.036" y1="0.558" x2="0.988" y2="0.664" gradientUnits="objectBoundingBox">
      <stop offset="0" stop-color="#360f33"/>
      <stop offset="1" stop-color="#d655c9"/>
    </linearGradient>
    <linearGradient id="linear-gradient-6" x1="0.041" y1="0.326" x2="0.956" y2="0.4" gradientUnits="objectBoundingBox">
      <stop offset="0" stop-color="#12a2b2"/>
      <stop offset="1" stop-color="#212d36"/>
    </linearGradient>
    <radialGradient id="radial-gradient" cx="0.085" cy="0.521" r="1.976" gradientTransform="matrix(1, 0, 0, 0.277, 0, 0.361)" gradientUnits="objectBoundingBox">
      <stop offset="0" stop-color="#282828"/>
      <stop offset="1"/>
    </radialGradient>
  </defs>
  <g id="ENFOCO_LOGO" data-name="ENFOCO LOGO" transform="translate(-5118.284 -9820.83)">
    <path id="União_38" data-name="União 38" d="M1282.95,70.156a7.021,7.021,0,0,1-1.749-2.332l-4.925-8.426a1.715,1.715,0,0,1-.2-.4h-36.253a2.488,2.488,0,0,1-.179.383l-.036.057-.006.006-.016.037-.021.037-3.989,6.9a11.8,11.8,0,0,0-.651,1.172,7.805,7.805,0,0,1-1.272,2,3.49,3.49,0,0,1-2.632,1.1c-1.278,0-2.372.021-3.249.043-.645.01-1.205.021-1.686.021-1.484,0-2.411-.107-3.045-.68a3.48,3.48,0,0,1-.775-2.76,2.958,2.958,0,0,1,.471-1.32c.2-.391.422-.795.507-.937L1230,53.592l.026-.037a5.993,5.993,0,0,0,.538-1.064,8.12,8.12,0,0,1,.8-1.5,3.025,3.025,0,0,1,.363-.434.665.665,0,0,0,.144-.207,1.948,1.948,0,0,0,.148-.33,4.973,4.973,0,0,1,.243-.529l.006-.016a5.339,5.339,0,0,1,.427-.646c.042-.059.09-.117.133-.18l9.426-16.41a4.807,4.807,0,0,1,.539-.8,3.047,3.047,0,0,0,.455-.715c.053-.111.11-.244.169-.377a13.136,13.136,0,0,1,.733-1.457l4.28-7.322c.8-1.59,2.679-4.445,4.767-5.268.054-.025.11-.047.175-.074a5.922,5.922,0,0,1,2-.561c.438,0,.887-.012,1.368-.027s1-.025,1.517-.025c2.04,0,4.371.223,6.156,1.891a20.705,20.705,0,0,1,3.45,4.98c.323.568.622,1.1.924,1.605.08.133.127.213.159.26a2.156,2.156,0,0,1,.185.334c.031.064.079.16.153.318l.006.006c.037.078.068.143.095.2a1.742,1.742,0,0,0,.165.3c.037.059.084.127.153.232l.016.027.961,1.584a7.955,7.955,0,0,1,.745,1.3c.085.18.175.365.3.6l0,.006c.106.211.308.582.413.752.074.111.11.158.173.238a5.788,5.788,0,0,1,.365.5l.031.053,2.32,4.1c.053.074.106.137.158.211a4.277,4.277,0,0,1,.391.572l2.864,4.891a11.811,11.811,0,0,1,.666,1.283,7.314,7.314,0,0,0,.7,1.293l.042.053.031.059,4.556,7.746c.021.037.037.064.048.086a1.879,1.879,0,0,1,.217.338c.131.229.211.4.274.541.048.111.085.2.148.318l7.286,12.457a2.489,2.489,0,0,0,.243.434c.048.064.1.148.185.275a4.2,4.2,0,0,1,.422,3.953,2.472,2.472,0,0,1-2.334,1.277c-1.513,0-2.69.037-3.641.068-.63.021-1.169.037-1.628.037A4.325,4.325,0,0,1,1282.95,70.156Zm-2.172-10.021s0,0,0,0h0S1280.778,60.135,1280.778,60.135ZM1239.422,55.6Zm17.764-26.584c-.1.186-.211.359-.295.508l-3.065,5.357c-.043.068-.074.133-.106.186-.079.148-.153.281-.307.52l-1.738,2.936a7.818,7.818,0,0,1-1.22,2.113,1.751,1.751,0,0,0-.237.35l-4.714,8.229h25a.476.476,0,0,1-.048-.062l-.032-.037-.026-.043-1.738-2.84c-.042-.074-.069-.143-.09-.186l-4.342-7.523-.021-.033c-.444-.926-1.01-1.859-1.611-2.85a35.268,35.268,0,0,1-1.876-3.328l-2.658-4.451c-.032-.062-.063-.121-.1-.18C1257.735,28.084,1257.47,28.529,1257.186,29.012Zm12.936,12.652ZM1264,22.738Zm-92.633,47.789c-1.653-.414-1.9-1.385-1.9-1.924V17.963a2.11,2.11,0,0,1,1.184-1.785,3.63,3.63,0,0,1,1.755-.514c.818,0,1.6-.021,2.277-.043.582-.021,1.13-.037,1.632-.037a5.645,5.645,0,0,1,3.1.637,3.354,3.354,0,0,1,1.312,3.041V66.871a4.965,4.965,0,0,1-.523,2.49,2.618,2.618,0,0,1-2.415,1.324c-.39,0-.9.021-1.437.043-.665.021-1.416.047-2.149.047A12.364,12.364,0,0,1,1171.364,70.527ZM1177,67.533Zm-4.2-.17,0,0ZM1172.659,66.871ZM1174.165,19ZM934.285,70.479c-1.611-.477-1.855-1.516-1.855-2.088V26.76H909.509a3.065,3.065,0,0,1-1.928-1.018,3.1,3.1,0,0,1-1-1.934V18.615a3.26,3.26,0,0,1,.861-1.812,2.709,2.709,0,0,1,1.854-1.139h57.532c1.325,0,2.509,1.652,2.509,2.951,0,.631.021,1.262.048,1.871.079,2.283.153,4.254-.966,5.42a2.963,2.963,0,0,1-2.231.854H943.69V67.094a4.275,4.275,0,0,1-.587,2.559,2.994,2.994,0,0,1-2.562,1.033c-.4,0-.893.021-1.416.043-.611.021-1.311.047-1.981.047A10.487,10.487,0,0,1,934.285,70.479Zm-.152-47.158Zm-.032-.006h0Zm-.071-.01h0Zm-4.325,0ZM910.176,23.3Zm19.676-.006Zm83.873,47.133c-1.733-.52-1.993-1.639-1.993-2.258V18.4a1.8,1.8,0,0,1,.175-.8,2.077,2.077,0,0,1-.847-.641,3.048,3.048,0,0,1-.41-2c0-.148,0-.3,0-.449v-.271l6.414-10.994a2.835,2.835,0,0,1,.481-.715,2.724,2.724,0,0,0,.217-.271,1.717,1.717,0,0,0,.142-.223A3.366,3.366,0,0,1,1020.914.08c.478,0,.99-.016,1.527-.037C1023,.021,1023.572,0,1024.127,0c1.635,0,3.409.176,4.122,1.463.533.949.312,2.2-.671,3.814l-.016.021-6.77,10.408a2.746,2.746,0,0,1,1.031.535c.228.18,1.38,1.148,1.38,2.156V67.957a2.552,2.552,0,0,1-.969,1.9,3.594,3.594,0,0,1-2.4.826c-.316,0-.734.016-1.168.031-.564.021-1.209.043-1.854.043A11.2,11.2,0,0,1,1013.725,70.432ZM1015.13,67.521ZM740.571,69.854a17.582,17.582,0,0,1-4.064-4.006c-.189-.223-.359-.393-.544-.572a9.224,9.224,0,0,1-.812-.891l-2.972-3.449c-.088-.1-.13-.137-.146-.154a2.771,2.771,0,0,1-.5-.424l-.041-.041-6.278-7.154c-.169-.2-.3-.359-.4-.5a7.848,7.848,0,0,0-.729-.826,13.29,13.29,0,0,1-1.073-1.229,11.063,11.063,0,0,0-1.331-1.479,6.586,6.586,0,0,1-1.04-1.219c-.1-.139-.2-.281-.318-.436L709.18,34.93c-.624-.652-1.718-1.912-2.88-3.254-.818-.947-1.95-2.252-2.874-3.279V60.6c0,1.123.011,2.113.021,2.982.047,3.57.068,5.2-.946,6.227-.839.857-2.155.926-3.661.926-.454,0-.95-.01-1.521-.016-.715-.016-1.517-.031-2.431-.031a2.766,2.766,0,0,1-2.405-1.42,3.638,3.638,0,0,1-.532-1.525v-44.8c0-2.607.939-5.93,3.587-6.719a20.458,20.458,0,0,1,5.543-.646,22.54,22.54,0,0,1,5.263.545c.074.021.143.037.207.053a2.891,2.891,0,0,1,1.854,1.061l.105.111L725.074,35.8l.185.211c.359.43.671.795,1,1.225l13.8,15.684c.454.461,1.147,1.277,1.944,2.221.777.916,1.659,1.961,2.437,2.8.105.111.205.217.295.318V20.184a8.294,8.294,0,0,1,.239-2.617,3.016,3.016,0,0,1,2.493-1.9c.777,0,1.521-.027,2.245-.059.646-.021,1.253-.047,1.817-.047a7.182,7.182,0,0,1,2.5.328,2.589,2.589,0,0,1,1.707,1.844c.09.35.3,1.182.333,15.418.017,7.8-.026,16.713-.053,22.605-.011,2.438-.021,4.365-.021,5.277,0,.047,0,4.8-.534,6.008l-.026.059-.159.309a7,7,0,0,1-1.933,2.268c-.047.037-.09.068-.127.1a3.722,3.722,0,0,1-2.954.912c-1.289,0-2.367.027-3.317.047-.729.018-1.359.027-1.929.027A8.191,8.191,0,0,1,740.571,69.854Zm-41.706-2.3Zm50.123-.068Zm-12.073-6.205Zm-8.628-9.908,0,0Zm-.212-.219Zm-16-18.205s0,0,0,0S712.075,32.941,712.075,32.943Zm-.387-.4Zm36.463-13.455ZM182.16,70.045a3.853,3.853,0,0,1-1.131-3.174V26.76H157.991a.5.5,0,0,1-.067,0,1.01,1.01,0,0,1-.829-.434,3,3,0,0,1-1.623-2.141,13.252,13.252,0,0,1-.127-3.158c.021-.588.043-1.256.043-1.982a4.354,4.354,0,0,1,.539-2.076,2.3,2.3,0,0,1,1.965-1.309h57.537a.392.392,0,0,0,.085-.006c.042,0,.1-.01.169-.01a1.392,1.392,0,0,1,.967.455c.116.1.27.223.5.418.037.027.079.059.132.1a1.729,1.729,0,0,1,.867,1.563v5.846a2.726,2.726,0,0,1-1.132,1.865,3.252,3.252,0,0,1-1.808.869h-22.7v38.6a10.678,10.678,0,0,1-.371,3.82,2.743,2.743,0,0,1-2.783,1.506c-.915,0-1.733.027-2.457.043-.6.021-1.108.031-1.591.031A4.968,4.968,0,0,1,182.16,70.045Zm7.282-46.2,0,0h0Zm-6.793-.557h0ZM158.643,22.4ZM214.536,19.086ZM102.315,69.646l-.074-.1-.723-1.834V18.832a3.833,3.833,0,0,1,.813-1.871,2.767,2.767,0,0,1,2.119-1.287c.988,0,1.865-.031,2.642-.053.635-.021,1.18-.043,1.686-.043a4.7,4.7,0,0,1,3.336.885,4.873,4.873,0,0,1,1.1,3.668V66.658a5.43,5.43,0,0,1-.534,2.549,2.623,2.623,0,0,1-2.4,1.479c-.36,0-.813.016-1.337.031-.654.021-1.4.043-2.135.043C104.144,70.76,102.882,70.447,102.315,69.646ZM109.624,19.086Zm976.521,51.6-3.99-.52-6.473-2.459-.095-.062a16.978,16.978,0,0,1-4.882-5.348l-.011-.025-.941-2.057a17.578,17.578,0,0,1-.966-3.846c-.006-.033-.6-3.016-.6-3.561V33.674l.016-.09,1.126-6.146.047-.111,1.479-3.332a13.736,13.736,0,0,1,4.39-4.871c.121-.094.243-.189.36-.285l.079-.059L1079,17.1l.079-.027a43.024,43.024,0,0,1,10.362-1.408h33.832a2.383,2.383,0,0,1,1.813,1.139,3.234,3.234,0,0,1,.692,1.6c0,.721.026,1.408.053,2.07a13.667,13.667,0,0,1-.174,3.832,3.093,3.093,0,0,1-2.669,2.422l-.084.016h-.08l-32.954.021a13.429,13.429,0,0,0-5.9.953h0c-.248.105-.429.164-.566.217a2.385,2.385,0,0,0-.628.3,4.713,4.713,0,0,0-1.521,1.441c-.037.063-.059.105-.069.127a2.62,2.62,0,0,1-.148.4V30.2a5.118,5.118,0,0,1-.744,1.336c-.047.217-.116.779-.221,1.574l-.037.279a93.333,93.333,0,0,0-.4,12.9c.021,1.367.043,2.777.043,4.133a8.07,8.07,0,0,0,.2,1.723,12.946,12.946,0,0,1,.229,1.432c.194,1.992,1.653,4.52,3.666,5.133a23.581,23.581,0,0,0,5.554,1.092c.613.049,1.347.07,2.25.07.782,0,1.591-.018,2.379-.033.771-.016,1.5-.031,2.182-.031h28.116l.295.445c.042.059.127.174.217.3.725.99,1.03,1.482,1.03,1.992s.021,1.076.048,1.664c.09,2.188.186,4.455-.982,5.674a2.687,2.687,0,0,1-2,.8Zm-.154-3.6h0ZM1117,63.135Zm-32.27-.344Zm-1.9-.684h0Zm-5.776-6.162v0h0ZM1071.768,50.857ZM1097.167,23.246Zm4.618-.016Zm-24.475-1.361s0,0,0,0h0S1077.311,21.867,1077.311,21.869ZM819,70.686a14.812,14.812,0,0,1-4.523-.641c-.407-.111-.793-.219-1.221-.309a14.7,14.7,0,0,1-5.31-2.24,12.88,12.88,0,0,1-4.734-5.336l-.043-.08-.021-.08-2.378-7.969V32.248a2.143,2.143,0,0,1,.074-.678,1.093,1.093,0,0,1,.317-.5,1.473,1.473,0,0,0,.054-.418,7.667,7.667,0,0,1,.485-2.332,5.485,5.485,0,0,0,.127-.609,4.56,4.56,0,0,1,.434-1.426c.316-.672.517-1.145.675-1.525a10.247,10.247,0,0,1,1.823-2.973,12.4,12.4,0,0,1,2.934-2.586c.1-.068.2-.133.3-.207a5.484,5.484,0,0,0,.56-.424,5.93,5.93,0,0,1,1.6-.885l.042-.021.751-.316a1.6,1.6,0,0,1,.26-.1l.042-.01,6.562-1.342.074-.006c2.732-.137,9.934-.328,17.385-.328,9.816,0,15.916.318,18.124.943.5.143.819.223,1.078.287a8.258,8.258,0,0,1,2.14.814,3.379,3.379,0,0,0,.322.154c0,.006.016.006.026.006.106.031.229.068.5.17a5.526,5.526,0,0,1,1.342.752c.148.1.3.2.471.313a14.317,14.317,0,0,1,3.52,3.412,12.976,12.976,0,0,1,2.245,4.377V26.8c.026.115.048.2.063.275a3.483,3.483,0,0,0,.2.625v.01c.063.182.1.275.131.35a3.937,3.937,0,0,1,.2.684l.011.064c.032.133.048.217.059.281a1.409,1.409,0,0,0,.048.205V29.3a20.19,20.19,0,0,1,.6,5.766v0a6.407,6.407,0,0,0,.1,1.277,9.913,9.913,0,0,1,.122,1.277V48.754l-.006.059-1.036,9.225-.021.086c-.143.477-.211.8-.274,1.086a5.494,5.494,0,0,1-.835,2.051,15.981,15.981,0,0,0-1.058,1.98c-.628,1.389-.886,1.775-4.464,4.473a10.239,10.239,0,0,1-3.086,1.5l-.106.037a13.3,13.3,0,0,1-3.407.879c-.34.043-.724.1-1.315.2a5.543,5.543,0,0,0-.64.148,4.875,4.875,0,0,1-1.559.207Zm-3.2-3.895Zm-4.773-1.643Zm0,0Zm-.016-.006h0Zm8-38.395-3.366,1.135a9.182,9.182,0,0,0-1.5,1.117c-1.034,1.215-1.712,3.572-2.019,7.006a89.648,89.648,0,0,0-.138,9.277c.021,1.008.037,1.955.037,2.762a39.981,39.981,0,0,0,.847,7.174,1.019,1.019,0,0,0,.153.307c.053.08.122.186.227.355.053.09.106.176.154.254a5.188,5.188,0,0,0,3.058,2.8c.223.1.382.176.5.234a2.08,2.08,0,0,0,1.036.2,3.716,3.716,0,0,1,1.907.439h26.784l3.815-.832,2.013-1.176c.472-.324.477-.334.666-.7.068-.127.147-.287.264-.494a7.1,7.1,0,0,1,.471-.74c.132-.182.169-.234.317-.9v-.01l.518-2.242c.486-3.5.513-16.547-.085-19.646-.639-3.281-1.652-4.621-4.332-5.682l-2.426-.641c-2.051-.18-8.09-.3-15.118-.3C826.06,26.457,820.813,26.568,819.012,26.748ZM858.1,53.518c-.164.789-.2,1.791-.376,2.475.175-.678.212-1.686.376-2.469a24.772,24.772,0,0,0,.328-3.467A24.672,24.672,0,0,1,858.1,53.518ZM862.946,49.342ZM809.072,32.439Zm44.7-7.328h0Zm-34.774-1.7h0ZM844.386,23h0Zm-.112-.016h0Zm-.28-.025Zm-.047,0a.063.063,0,0,1-.032-.006A.063.063,0,0,0,843.946,22.961Zm1.479-3.875Zm-1.4,0Zm-.042,0Zm-298.314,51.6-7.206-1.426-.085-.031a13.971,13.971,0,0,1-4-2.221A9.46,9.46,0,0,1,531.8,64.5a7.392,7.392,0,0,0-.528-.709l-.036-.043-.026-.043-.656-.953-.026-.064s-.011-.016-.037-.062l-.036-.053-.582-1.3-.016-.053c-.074-.232-.2-.551-.345-.916a16.956,16.956,0,0,1-1.325-4.828c-.476-6.146-.465-9-.449-14.174,0-1.07.01-2.289.01-3.641,0-5.992.857-10.434,2.616-13.574a20.765,20.765,0,0,1,3.789-4.584c3.027-2.246,6.2-3.047,10.028-3.555,1.865-.25,7.478-.371,17.142-.371,5.156,0,10.42.037,14.646.063,2.638.016,4.719.027,6,.027a2.812,2.812,0,0,1,1.764.965,2.808,2.808,0,0,1,.962,1.77c0,.582.021,1.176.043,1.754a13.717,13.717,0,0,1-.17,3.8,3.5,3.5,0,0,1-.871,1.643,3.2,3.2,0,0,1-1.823.891,43.087,43.087,0,0,1-4.941.148c-2.53,0-5.795-.037-9.257-.08h-.285c-3.81-.049-7.514-.086-10.906-.086-8.169,0-10.615.256-11.228.467l-.043.012-.855.264a7.438,7.438,0,0,0-2.717,1.346l0,.006a2.256,2.256,0,0,0-.724.727c-1.04,1.51-1.077,1.791-1.178,2.533-.037.3-.091.684-.2,1.191a17.642,17.642,0,0,0-.523,4.727h42.1a3.034,3.034,0,0,1,2.314.959,3.544,3.544,0,0,1,.835,2.422c0,.551.011,1.059.021,1.541.042,1.982.072,3.418-.861,4.377a3.875,3.875,0,0,1-2.959.928H539.01a18.111,18.111,0,0,0,.318,4.275c.068.408.152.918.253,1.547.08.488.122.822.159,1.061.016.121.032.238.042.313a6.891,6.891,0,0,1,.645,1.033c.1.186.186.35.27.514a3.355,3.355,0,0,0,2.023,1.93,5.035,5.035,0,0,0,2.389.73c.1.012.206.021.317.031a3.286,3.286,0,0,1,1.178.287,1.015,1.015,0,0,0,.343.1l31.36.027c.239,0,.513-.016.8-.027.338-.016.725-.031,1.115-.031a4.827,4.827,0,0,1,3.587,1.188l.011.01a3.541,3.541,0,0,1,.872,1.807c0,.488.021,1.008.043,1.559.085,2.141.18,4.355-.983,5.568a2.689,2.689,0,0,1-2,.8Zm24.016-3.105Zm-15.828-.043h0Zm-9.292-4.625Zm-.092-.025h0Zm-.113-.027Zm-.105-.027Zm-.074-.02,0,0Zm-.18-.049Zm-.026-.006Zm-.18-.053Zm-.036-.01Zm-.078-.021h0Zm-.033-.01Zm-.085-.027Zm-.12-.037h0Zm-.018,0h0Zm-.215-.068h0Zm-.128-.043h0Zm-.111-.037h0Zm-.38-.127ZM531.343,51.5Zm43.362-28.543Zm-.027,0v0Zm-.038-.006h0ZM574.556,22.955Zm-.639-.006Zm-9.948-.084h0ZM276.415,70.686a6.688,6.688,0,0,1-1.786-.191c-.179-.037-.39-.084-.671-.137-.212-.037-.407-.074-.6-.105-3.831-.7-4.739-.859-8.433-3.223a15.633,15.633,0,0,1-3.25-3.418l-.016-.021-.481-.82a14.071,14.071,0,0,1-1.564-3.582l-.6-2.459c-.021-.105-.037-.18-.047-.223a1.537,1.537,0,0,1-.064-.174c-.538-1.676-.564-8.871-.518-16.4,0-.625.011-1.113.011-1.41,0-.338-.006-.687-.006-1.027,0-.588-.011-1.2,0-1.8a7.889,7.889,0,0,1,.127-1.416,5.623,5.623,0,0,0,.1-.969c.074-2.666.085-2.771.439-3.937.127-.424.308-1.006.56-2.014v-.01c.048-.176.069-.281.09-.383a4.689,4.689,0,0,1,.229-.752c.089-.217.416-.832.5-.969.169-.312.231-.439.369-.732l.037-.078c.037-.074.079-.17.127-.271a14.887,14.887,0,0,1,.8-1.572,7.511,7.511,0,0,1,1.108-1.215c.111-.105.212-.2.291-.279a12.457,12.457,0,0,1,2.985-2.443l.158-.1c2.685-1.732,5.548-2.162,8.322-2.574,1.786-.266,7.679-.393,18.018-.393,5.152,0,10.51.031,14.421.059,2.452.01,4.39.021,5.549.021a2.474,2.474,0,0,1,1.764,1.055,3.094,3.094,0,0,1,.746,1.68c0,.523.016,1.07.037,1.646.089,2.416.174,4.7-1.105,5.766-.491.408-1.437.811-7.017.811-1.585,0-3.16-.031-4.317-.053-.677-.016-1.209-.027-1.521-.027-1.489,0-3.593-.02-6.035-.047-3.042-.031-6.492-.064-9.521-.064-2.989,0-5.066.033-6.361.1-.629.043-2.727.223-3.117.3l-2.019.668c-.217.1-.412.18-.608.258a4.34,4.34,0,0,0-1.833,1.209,4.2,4.2,0,0,0-1.168,2.141c-.058.2-.121.424-.2.662a3.29,3.29,0,0,1-.175.461,1.357,1.357,0,0,0-.037.139l0,0a24.993,24.993,0,0,0-.465,5.363h41.885a3.02,3.02,0,0,1,2.728,1.5,5.318,5.318,0,0,1,.639,2.744v.455c.006,2.2.006,3.65-.961,4.627a3.948,3.948,0,0,1-2.837.9H269.647a23.518,23.518,0,0,0,.57,6.283v.012c0,.016.011.031.016.043a3.9,3.9,0,0,1,.216.646c.424,1.531,1.521,3.295,3.019,3.8l4.374,1.074c.973.049,2.965.074,6.088.074,3.592,0,8.26-.031,12.348-.062l1.327-.012c3.884-.025,7.551-.047,10.276-.047a33.147,33.147,0,0,1,4.683.1,3.772,3.772,0,0,1,1.537.852,2.557,2.557,0,0,1,1.021,1.818c0,.662.026,1.33.048,1.971.089,2.273.168,4.234-.92,5.367a2.722,2.722,0,0,1-2.062.8Zm-1.661-3.746h0ZM270.159,44.59Zm-1.728-.049Zm-.218,0ZM266.26,37.283ZM261.79,36.789Zm.4-4.068Zm3.382-9.2s0,0,0,0S265.567,23.521,265.567,23.523Zm40.834-.463ZM294.2,22.949Zm11.5-3.836Zm2.637-.012ZM286.187,19ZM2.962,70.686a2.583,2.583,0,0,1-2.52-1.562,6.622,6.622,0,0,1-.419-2.682c0-.35,0-.674,0-.98-.016-2.3-.026-3.693.924-4.652.82-.826,2.125-1,3.832-1h34.6c.477,0,.947.016,1.405.027s.873.025,1.285.025a6.8,6.8,0,0,0,2.266-.285c.127-.049.238-.086.344-.127a2.128,2.128,0,0,0,.741-.346,4.854,4.854,0,0,0,.527-1.266l.2-6.941a3.677,3.677,0,0,0-.263-1.15c-.016-.043-.031-.09-.048-.143A2.216,2.216,0,0,0,44.4,48.234a62.589,62.589,0,0,0-8.776-.3c-2.773,0-5.971.025-8.793.053h-.221c-2.838.021-5.765.047-8.28.047a74.459,74.459,0,0,1-7.831-.223c-.09-.016-.174-.025-.259-.037a5.777,5.777,0,0,1-.787-.137l-.021-.006L7.242,46.99A5.776,5.776,0,0,1,5.9,46.3l-.148-.1a10.922,10.922,0,0,1-5.03-6.354c-.143-.539-.295-1.2-.38-1.674a44.76,44.76,0,0,1-.328-7.551c0-.578.01-1.117.01-1.627a17.1,17.1,0,0,1,.893-5.8l.006-.012c.048-.121.085-.2.116-.264s.069-.154.148-.34c.021-.053.143-.387.158-.43l.031-.084a3.98,3.98,0,0,1,.6-1.076l.047-.068A13.162,13.162,0,0,1,3.485,19.15a10.582,10.582,0,0,1,3.111-2.2c.418-.17.852-.328,1.157-.43H7.76a19.755,19.755,0,0,1,5.543-.857H53.164A2.384,2.384,0,0,1,55.379,17.4a11.62,11.62,0,0,1,.527,4.684,13.192,13.192,0,0,1-.275,2.135,2.97,2.97,0,0,1-.681,1.6c-.343.344-.824.594-3.946.736-1.718.08-4.111.117-7.324.117-3.508,0-7.508-.043-11.381-.086h-.069c-3.979-.047-7.735-.09-10.964-.09a58,58,0,0,0-8.1.287,2.94,2.94,0,0,0-.284.08,1.062,1.062,0,0,0-.139.105c-.058.041-.127.1-.212.158a2.476,2.476,0,0,0-1.034,2.1c0,.961-.032,1.855-.059,2.65-.116,3.344-.1,4.736,1.464,5.479l.544.229c.328.084,1.977.27,10.113.27,4.27,0,8.787-.047,11.778-.08,1.347-.016,2.324-.025,2.747-.025.623,0,1.273-.012,1.961-.021.723-.016,1.475-.031,2.235-.031a25.056,25.056,0,0,1,7.244.854,10.012,10.012,0,0,1,5.943,4.514c.1.164.2.318.3.467a6.613,6.613,0,0,1,.481.8h.006a6.875,6.875,0,0,1,.344.928c.063.2.12.387.189.561.063.145.105.256.143.34a2.038,2.038,0,0,1,.228.885c.011.123.021.313.059.641.043.355.1.68.152,1.018a12.737,12.737,0,0,1,.238,2.379c0,.541.01,1.135.021,1.766.059,3.725.128,8.355-1.373,11.471a5.951,5.951,0,0,1-.455.732c-.042.063-.079.121-.111.164A11.27,11.27,0,0,1,48.462,70.3c-.185.037-.354.08-.538.127a6.929,6.929,0,0,1-1.865.26ZM3.433,66.871Zm26.9-3.6ZM50.506,42.914c-.037-.025-.073-.053-.11-.074C50.433,42.861,50.469,42.889,50.506,42.914Zm-.163-.111a.244.244,0,0,1-.059-.037A.244.244,0,0,0,50.343,42.8ZM10.37,40.059h0ZM3.385,32.486Zm34.584-9.531ZM24.024,22.9ZM1337.242,70.68a2.535,2.535,0,0,1-2.087-.932,3.649,3.649,0,0,1-.845-1.791c0-.6-.021-1.193-.043-1.77a15.04,15.04,0,0,1,.122-3.578,3.28,3.28,0,0,1,2.213-2.643,5.389,5.389,0,0,1,1.713-.213c.38,0,.755.016,1.114.031.307.018.593.027.83.027h20.476c.639,0,1.69.016,3.017.037,2.113.027,4.74.068,7.271.068,5.733,0,7.171-.207,7.524-.312l1.174-.693c.432-.473.9-1.812.977-4.256a16.111,16.111,0,0,0-.508-4.891c-.026-.074-.047-.148-.073-.217a1.807,1.807,0,0,0-.264-.572,3.358,3.358,0,0,0-.889-.609,28.7,28.7,0,0,0-5.421-.381c-2.59-.07-6.087-.107-10.4-.107-4.291,0-8.509.033-11.583.059-1.569.012-2.812.027-3.54.027H1348a16.919,16.919,0,0,1-6.944-1.25,10.721,10.721,0,0,1-5.24-5.008c-1.7-3.264-1.618-7.387-1.533-11.377.016-.836.032-1.627.032-2.41a16.017,16.017,0,0,1,1.119-5.23c2.146-4.662,6.167-7.025,11.941-7.025h40.085a2.445,2.445,0,0,1,2.134,1.488,5.618,5.618,0,0,1,.586,2.543c0,.5.006.965.011,1.379.026,2.24.043,3.592-.87,4.52-.783.789-1.993.953-3.578.953l-31.9-.01c-.428,0-.9-.021-1.4-.037-.565-.021-1.151-.043-1.749-.043a9.128,9.128,0,0,0-3.593.551,2.166,2.166,0,0,0-1.3,2.209c0,.986-.032,1.893-.054,2.688a14.98,14.98,0,0,0,.153,3.879,2.325,2.325,0,0,0,1.579,1.674l.28.117,24.2.164c.619,0,1.3-.012,2.019-.027.808-.016,1.649-.031,2.51-.031a24.253,24.253,0,0,1,7.688.943l.016.01.613.234a10.735,10.735,0,0,1,6.172,6.67,2.228,2.228,0,0,0,.175.408,2.77,2.77,0,0,1,.344,1.277,56.58,56.58,0,0,1,.517,7.842,25.977,25.977,0,0,1-1.035,8.027,9.6,9.6,0,0,1-2.208,3.789,9.865,9.865,0,0,1-4.477,2.979,11.169,11.169,0,0,1-3.5.82ZM1351.262,44.59Zm25.1-.006Zm-2.056-3.418Zm-11.91-18.3ZM426.39,70.68c-2.415,0-3.8-1.621-3.8-4.455V20.131a5.569,5.569,0,0,1,.823-3.068,4.919,4.919,0,0,1,1.1-.826,2.822,2.822,0,0,1,1.437-.572c1.163,0,3.08-.012,5.507-.027,3.925-.025,9.294-.059,14.557-.059,11.557,0,18.1.164,20.011.5l.042.006,7.081,1.859.042.016a4.759,4.759,0,0,1,1.494.785c.133.1.275.2.482.338a3.164,3.164,0,0,0,.343.2,7.326,7.326,0,0,1,.635.4,15.223,15.223,0,0,1,3.085,2.855,2.468,2.468,0,0,1,.582.85.843.843,0,0,0,.111.211,1.708,1.708,0,0,0,.357.455,3.273,3.273,0,0,1,.831,1.416c.49,1.256.771,1.9.949,2.326a8.1,8.1,0,0,1,.619,2.039c.111.494.28,1.234.54,2.354l0,0a8.168,8.168,0,0,1,.158,1.559,10.945,10.945,0,0,0,.074,1.117,40.571,40.571,0,0,1,.387,5.391c0,4.037-.079,11.211-.6,13.887-.073.381-.153.705-.222.986-.091.381-.17.705-.228,1.107l-.011.105L480.919,61.4l-.031.064a2.626,2.626,0,0,1-.434.656c-.037.043-.085.1-.2.238l-.016.016-2.44,3.037c-2.859,3.168-10.267,5.271-13.913,5.271Zm16.8-3.088h0Zm-14.73-.059Zm-.173,0Zm-.127,0h0Zm2.309-.006ZM425.855,65.789Zm20.575-2.521Zm-11.155,0ZM430.484,60.814ZM430.474,59.855Zm6.615-33.334c-1.289,0-2.4.016-3.239.016V59.813h28.74a.83.83,0,0,0,.349-.064,9.219,9.219,0,0,1,2.1-.391,5.84,5.84,0,0,0,2.685-1.033c.237-.145.48-.3.75-.439,1.58-.865,2.642-2.539,3.335-5.268a72.9,72.9,0,0,0,.38-9.707c-.021-5.623-.279-8.918-.507-9.6a8.666,8.666,0,0,0-2.294-4.07,7.045,7.045,0,0,0-2.922-1.77l-2.595-.715c-1.494-.191-6.446-.287-14.721-.287C444.792,26.473,440.338,26.5,437.089,26.521Zm24.073-7.436Z" transform="translate(5118.284 10063.037)"/>
    <path id="Caminho_2519" data-name="Caminho 2519" d="M5164.6,10486.9v54.316a115.408,115.408,0,0,0,1.261,16.051,77.111,77.111,0,0,0,6.247,21.885,49.412,49.412,0,0,0,7.906,11.57,47.369,47.369,0,0,0,12.5,9.355c12.863,6.4,27.7,8.656,43.5,8.656h124.431a5.3,5.3,0,0,0,5.41-5.627v-26.4c0-4.34-2.951-5.643-6.924-5.627H5245.751c-8.448,0-16.781-.155-23.184-2.136a29.388,29.388,0,0,1-4.519-1.757l-3.832-2.443a21.894,21.894,0,0,1-7.075-11.752c-1.872-7.416-1.858-15.4-1.858-23.244h153.429c3.149,0,5.41-2.035,5.41-5.194v-23.372a4.974,4.974,0,0,0-4.761-4.76H5205.284c0-15.471.082-32.57,17.528-37.439a57.584,57.584,0,0,1,14.933-1.945H5396.8v145.638c0,3.534,1.932,6.06,5.41,6.06h30.08c6.991,0,5.193-8.506,5.193-14.5,0-12.589-.3-130.276.113-132.975.4-2.621,1.541-2.493,3.783-2.493,3.6,0,5.352,3.375,7.172,5.812l17.25,22.568c1.3,1.735,2.5,3.272,3.832,5.041l43.995,57.5c.666.891,1.257,1.733,1.948,2.6.678.849,1.2,1.534,1.885,2.443.717.957,1.278,1.625,1.979,2.565l11.533,15.084c1.288,1.683,2.524,3.3,3.831,5.042,1.275,1.7,2.481,3.275,3.738,4.918,5.1,6.668,9.942,13.66,15.852,19.637,5.258,5.318,11.551,6.762,19.856,6.762h29.431c6.179,0,13.841-2.27,17.316-7.139,3.8-5.322,4.757-12.733,4.757-19.7v-157.107a5.334,5.334,0,0,0-5.627-5.627h-29.214c-7.369,0-5.626,8.773-5.626,14.066v127.894c0,7.675,1.016,8.007-4.761,8.007-2.535,0-3.6-2.268-4.884-3.988-10.135-13.557-20.663-26.848-30.79-40.405l-69.28-90.858a46.359,46.359,0,0,0-3.948-4.924c-3.294-3.312-5.208-5.889-9.961-7.783-4.29-1.709-10.058-2.008-15.954-2.008h-206.23a139.61,139.61,0,0,0-32.075,3.414,62.453,62.453,0,0,0-21.466,9.7,43.5,43.5,0,0,0-10.774,11.515c-7.752,11.552-10.56,27.874-10.56,43.108Z" transform="translate(-46.316 -584.385)" fill-rule="evenodd"/>
    <path id="Caminho_2520" data-name="Caminho 2520" d="M45232.734,10527.127c0-5.276-.273-29.943.184-34.006.121-1.093.035-2.719.031-3.865-.008-1.57.2-2.346.215-3.677a49.048,49.048,0,0,1,2.469-13.111c2.5-6.476,5.352-9.324,11.164-12.212a30.039,30.039,0,0,1,5.895-1.893c2.723-.6,26.105-.269,30.895-.269,2.8,0,26.266.47,28.633-.583.59-.263.723-.5,1.445-.5h38.953a59.584,59.584,0,0,1,14.625,1.82c8.938,2.541,13.852,7.744,16.156,17.175a68.219,68.219,0,0,1,1.68,14.979v45.877c0,9.585-1.4,20.268-8.059,27-6.344,6.412-19.254,7.193-28.078,7.193H45269.3C45236.73,10571.057,45232.734,10560.095,45232.734,10527.127Zm-272.234-29.863v37.871c0,2.594.211,3.2.227,4.535.125,10.412.445,15.061,2.641,25.49a59.845,59.845,0,0,0,8.168,19.747,43.958,43.958,0,0,0,8.965,9.862,48.522,48.522,0,0,0,5.469,3.838c9.609,5.326,17.078,7.359,28.566,8.869a137.4,137.4,0,0,0,17.594,1.234h127.246a4.977,4.977,0,0,0,5.188-5.194V10575.6a5.018,5.018,0,0,0-1.977-4.3c-1.539-1-2.68-1.119-5.16-1.113h-112.965c-14.039,0-31,.85-38.016-12.189-2.648-4.934-4.18-13.371-4.18-20.92v-46.094c0-8.7,1.82-17.611,5.375-22.756,8.8-12.711,31.188-10.137,46.344-10.137H45195.3c-1.922,8.246-2.246,8.322-3.285,17.489-1.375,12.11-.828,43.679-.828,56.952,0,16.865,1.055,33.265,8.008,47.176a44.514,44.514,0,0,0,3.465,5.842c6.977,9.826,15.977,15.337,27.453,18.855,8.68,2.662,21.344,4.3,32.7,4.3h92.406c14.969,0,31.035-2.329,43.422-8.512a48.416,48.416,0,0,0,5.438-3.217l3.672-2.818c.531-.463.773-.562,1.3-1.084.773-.766,1.387-1.4,2.16-2.168a45.354,45.354,0,0,0,7.938-11.54,60.507,60.507,0,0,0,4.969-14.722,117.441,117.441,0,0,0,2.512-23.674v-54.316a120.291,120.291,0,0,0-1.285-16.459c-.359-2.629-.828-4.975-1.4-7.477a57.443,57.443,0,0,0-6.711-17.524l-1.8-2.747a33.058,33.058,0,0,0-4.016-4.857,11.389,11.389,0,0,0-1.113-1.269c-.934-.78-1.488-1.47-2.383-2.161a47.864,47.864,0,0,0-10.8-6.944c-12.125-6.112-30.68-8.079-45.371-8.079H45035.59c-18.879,0-41.867,2.58-56.316,15.313l-2.2,2.129c-4.445,4.439-5.277,6.4-8.312,11.382a52.568,52.568,0,0,0-2.922,6.6,61.973,61.973,0,0,0-2.273,7.462C44961,10472.486,44960.5,10484.3,44960.5,10497.264Z" transform="translate(-38916.348 -584.366)" fill-rule="evenodd"/>
    <path id="Caminho_2521" data-name="Caminho 2521" d="M26399.6,10487.03v116.64a5.093,5.093,0,0,0,5.41,4.979h31.162a5.243,5.243,0,0,0,3.689-1.721,7.181,7.181,0,0,0,1.287-4.339v-70.114h120.318c4.551,0,7.141-1.516,7.141-6.059v-21.857c0-3.627-2.375-5.627-6.059-5.627h-121.4c0-8.285-.2-16.361,2.068-24.332,2.395-8.391,6.93-13.078,15.432-15.73a49.367,49.367,0,0,1,10.635-1.7c1.238-.018,1.508-.223,2.8-.225l109.289.007c4.176,0,8.389.058,12.559.009,4.063-.047,6.918-1.566,6.918-5.635v-26.617a5.582,5.582,0,0,0-1.559-4.067,6.422,6.422,0,0,0-4.285-1.56h-120.1c-15.441,0-36.531,2.014-49.816,10.344a44.591,44.591,0,0,0-14.934,14.282C26402.445,10455.23,26399.6,10472.988,26399.6,10487.03Z" transform="translate(-20787.08 -584.305)" fill-rule="evenodd"/>
    <path id="União_27" data-name="União 27" d="M93.052,224.506c-1.959-.32-3.87-.859-5.675-1.244a109.15,109.15,0,0,1-15.871-4.906c-1.633-.656-3.39-1.34-4.857-2.07-1.564-.779-3.08-1.436-4.687-2.242-7.537-3.764-18.545-10.971-24.571-16.971-.673-.662-1.153-.918-1.853-1.617L25.506,184.719c-6.353-7.8-10.132-14.119-14.755-23.328-1.6-3.17-2.76-6.336-4.11-9.748-.635-1.611-1.243-3.484-1.74-5.178C.625,131.935,0,124.285,0,109.162,0,96,3.822,81.531,8.627,69.529c.646-1.627,1.382-2.979,2.071-4.639L18.183,51.6c.479-.725.795-1.365,1.351-2.107.528-.7.816-1.2,1.334-1.916,2.359-3.268,3.844-4.885,6.091-7.758L38.9,27.748A119.918,119.918,0,0,1,52.678,17.5c3.353-2.045,5.285-3.209,8.852-5C82.2,2.166,104.939-2.184,128.018,1.051a113.652,113.652,0,0,1,32.051,9.289c12.166,5.637,17.056,9.459,26.222,16.836a9.247,9.247,0,0,1,.95.779L195.9,36.4a115.312,115.312,0,0,1,9.337,11.436c3.47,5.012,4.874,7.639,7.911,12.865l4.34,9.293a115.134,115.134,0,0,1,5.1,15.449c3.059,12.252,3.331,18.775,3.331,31.293,0,21.178-8.125,43.16-19.869,60.418l-8.327,10.715a11.638,11.638,0,0,1-.859.869l-5.082,5.307-13.314,11.141-15.086,9.15a110.781,110.781,0,0,1-50.136,11.857A124.26,124.26,0,0,1,93.052,224.506ZM112.744,28.65c-1.206.016-1.383.223-2.589.234l-7.329.465a68.872,68.872,0,0,0-9,1.605c-1.942.492-6.336,1.592-8.253,2.344-6.433,2.51-7.879,2.92-14.445,6.545-2.29,1.266-4.34,2.707-6.47,4.137L58.679,48.6c-7.821,6.3-14.077,14.445-19.17,23.029-1.276,2.152-2.439,4.555-3.519,6.871-11.781,25.41-9.192,56.025,5.6,79.523a83.631,83.631,0,0,0,22.863,24.1c2.013,1.484,4.164,2.717,6.353,4.035,13.025,7.891,28.021,11.3,43.454,11.3a83.946,83.946,0,0,0,26.809-4.789c8.039-2.686,20.573-9.656,26.478-15.283l2.729-2.467a28.456,28.456,0,0,0,2.68-2.514,90.964,90.964,0,0,0,11.637-14.766L188.345,151A89.072,89.072,0,0,0,193,139.867a73.4,73.4,0,0,0,2.242-8.146c4.6-21.652,1.58-41.43-9.075-60.492l-8.754-12.455c-4.447-5.51-8.323-8.584-13.533-12.865a33.656,33.656,0,0,0-3.011-2.184c-10.105-6.693-17.547-10.029-29.3-12.9a90,90,0,0,0-13.848-1.953c-.812,0-1.793.063-2.589,0a18.166,18.166,0,0,0-2.192-.221C112.88,28.648,112.813,28.648,112.744,28.65Zm-58.3,163.3V181.441c-1.03-1.057-2.45-2.129-3.5-3.117-.432-.4-.792-.838-1.175-1.258.379.42.743.854,1.175,1.258,1.052.988,2.472,2.061,3.5,3.117l0,10.512Zm0,0c-1.876-.584-6.638-5.088-8.533-6.7C47.8,186.865,52.559,191.369,54.439,191.953Zm129.026-24.391-2.194,2.775a94,94,0,0,1-8.2,8.676c-2.439,2.092-2.957,2.748-6.086,5.178-1.1.859-2.108,1.611-3.229,2.4-2.877,2.018-3.333,1.455-3.329,4.471,0-3.016.452-2.453,3.329-4.471,1.126-.791,2.125-1.543,3.235-2.4,3.123-2.43,3.646-3.086,6.08-5.178a93.214,93.214,0,0,0,8.2-8.676l2.2-2.775a1.742,1.742,0,0,1,.566-.424A1.734,1.734,0,0,0,183.466,167.562Zm-140.69,14.6a13.088,13.088,0,0,1,1.215,1.361,12.638,12.638,0,0,0-1.215-1.367c-1.153-1.129-1.1-.584-1.414-1.273C41.674,181.572,41.622,181.027,42.775,182.162ZM41.2,180.5c.511-.619.247-4.91.235-5.918.012,1.008.27,5.3-.235,5.918Zm-.062-.074c-.645-.785-1.656-1.773-2.421-2.643C39.479,178.654,40.494,179.642,41.14,180.428Zm143.148-.561a2.5,2.5,0,0,0-.222-.193C184.077,179.7,184.119,179.7,184.288,179.867Zm-.277-.609c.017.088.028.156.036.209C184.039,179.414,184.028,179.345,184.011,179.258ZM47.676,175.1c.07.07.141.139.212.205-.071-.066-.142-.135-.212-.205-1.441-1.447-5.119-6.336-6.256-7.084C42.557,168.763,46.229,173.652,47.676,175.1Zm-6.24-.582Zm161.7-23.67a97.642,97.642,0,0,1-8.365,15.68c-1.611,2.465-3.342,4.83-5.082,7.035,1.74-2.205,3.471-4.564,5.088-7.035a96.832,96.832,0,0,0,15.943-54.2A97.016,97.016,0,0,1,203.132,150.847ZM41.441,171.263c0-1.088,0-2.172-.021-3.248C41.438,169.094,41.442,170.178,41.441,171.263Zm144.7-7.113q.691-.987,1.36-2.01Q186.832,163.163,186.141,164.15Zm15.969-50.758a90.686,90.686,0,0,0-19.38-56.242A90.694,90.694,0,0,1,202.109,113.392ZM50.275,36.961c-2.439,1.885-4.82,4.111-6.907,6.07l-4.74,5c-.518.668-.967,1.105-1.489,1.762-1.18,1.469-5.061,6.055-5.632,7.469-2.766,4.943-4.233,6.006-7.618,13.051a93.351,93.351,0,0,0-5.856,15.135A102.164,102.164,0,0,0,14.127,113a102.164,102.164,0,0,1,3.905-27.553,92.823,92.823,0,0,1,5.862-15.135c3.379-7.045,4.847-8.107,7.612-13.051.571-1.414,4.452-6,5.632-7.469.522-.656.972-1.094,1.494-1.762l4.735-5c2.087-1.959,4.468-4.186,6.913-6.07,1.738-1.344,5.608-4.6,7.543-5.447v0C55.9,32.353,52.021,35.615,50.275,36.961ZM192.535,56.2A96.254,96.254,0,0,1,210.7,110.246c0,.232.008.463.011.7,0-.232-.007-.463-.011-.7A96.232,96.232,0,0,0,192.535,56.2c-.014-.021-.029-.041-.044-.062C192.506,56.16,192.521,56.179,192.535,56.2ZM31.73,73.449l.007-.006c.318-1.732.073-11.268.132-14.494,0-.25.006-.463.006-.643,0,.18,0,.393-.006.643-.059,3.23.188,12.781-.144,14.5ZM182.354,56.7c-.771-.881-1.063-1.02-1.066-2.934C181.29,55.681,181.581,55.818,182.354,56.7Zm-1.05-6.984c0-1.918-.009-3.836-.011-5.754C181.295,45.879,181.3,47.8,181.3,49.717Zm-.011-6.393Z" transform="translate(5810.667 9820.83)"/>
    <path id="União_32" data-name="União 32" d="M0,67.419c0-1.945,0-3.895,0-5.846L.985,42l1.457-11.51c.207-.879.175-.854.249-.826.048.016.128.031.313-.117a2.959,2.959,0,0,1-.144.436A1.555,1.555,0,0,0,3,29.55c-.525-1.537.249-2.289.444-3.687.165-1.092.26-.906.414-1.76.074-.418.042-.5.143-.934.016-.057.2-.588.212-.656.218-.8.2-.965.44-1.723,1.007-3.068,1.2-4.578,2.639-8.182l.122-.312c.021-.047.048-.105.063-.154a49.191,49.191,0,0,1,3.847-7.408l1.813-2.512C13.98,1.368,18.436.876,19.819.675A83.614,83.614,0,0,1,39.649.511c14.827,1.859,24.9,6.471,35.893,14.1l7.482,6.152c.71.619,1.171.879,1.377,1.648-6.692-1.559-19.845,2.32-26.591,4.572-.864.287-2.348,1.082-3.27.928l-.013,0c-.283.373-.079.2-.523.459l-3.862,1.553c-4.553,1.967-12.618,5.6-16.825,8.061l-6.152,3.365c-.377.211-.62.381-.949.566l-8.69,5.162c-2.83,1.881-2.767,1.271-3.911,3.227-.122.207-.159.287-.307.557l-7.324,12.6c-.439.742-.631,1.256-1.038,1.982-.281.5-.351.477-.689,1.049L3.18,68.436a8.554,8.554,0,0,0-.589.928C2.077,70.3.985,72.526.217,73.046.217,70.862-.006,69.538,0,67.419Zm3.047-37.2,0,0A.536.536,0,0,0,2.891,30,.575.575,0,0,1,3.047,30.218Zm39.246-5.691a49.431,49.431,0,0,1,9.057,3.031,7.931,7.931,0,0,0,1.8.688,8.351,8.351,0,0,1-1.791-.687A49.784,49.784,0,0,0,42.3,24.526c-.8-.2-1.929-.43-3.222-.65C40.368,24.1,41.5,24.325,42.293,24.526Z" transform="translate(5892.687 9857.161)" fill="url(#linear-gradient)"/>
    <path id="União_33" data-name="União 33" d="M49.036,95.215c-1.8-.977-3.735-2.043-5.476-3.178l-2.706-1.629c-.934-.6-1.729-1.051-2.679-1.641L27.708,81.707c-.5-.367-.743-.541-1.263-.9L22.8,77.967c-1.326-.988-8.42-6.484-9.248-8.2-.864-.031-2.074-1.586-2.615-2.229-.032-.031-.069-.08-.1-.117l-.595-.705c-.26-.27-.334-.3-.562-.52l-.218-.213c-.042-.047-.159-.18-.206-.229C8.189,64.59,6.1,62.41,5.541,61.025c1.353.287.648-.068.955.508-.306-.576.4-.227-.95-.508-.711-.377-2.546-3.338-3-4.148a7.2,7.2,0,0,0-.409-.68L.109,51.938c-.51-1.545.912-4,1.427-5.529a26.369,26.369,0,0,1,1.088-2.584l3.64-7.395c2.663-4.865,5.242-7.906,8.366-11.986.4-.525.3-.525.869-.785h0c1.093-1.973,5.142-5.5,6.76-6.945.355-.312.5-.535.88-.854A73.364,73.364,0,0,1,34.249,7.938C39.422,4.846,47.206,1.338,52.931,0c-.25.945-2.154,3.535-2.8,4.982l-3.337,8.352-2.515,9.088L42.023,37.543c-.3,1.66-.159,3.135-.44,4.986-.308,2.08-.17,3.555-.345,5.715l-.261,5.576c-.742,5.4.085,11.742.054,17.375a14.152,14.152,0,0,0,.212,2.818c.2,1.113-.133.18.462,1.055L44.32,79.59c.43.658.716,1.209,1.1,1.926l8.558,14.818a7.03,7.03,0,0,1,.9,1.91C53.614,97.947,50.48,95.994,49.036,95.215ZM6.82,60.723a1.482,1.482,0,0,1-.256.721,1.54,1.54,0,0,0,.262-.721c.722-4.467,1.841-.732,3.315-5.857C8.66,59.99,7.552,56.25,6.82,60.723ZM22.291,44.881C19.548,50.027,19.914,49.932,17.712,55c-.149.342-.071.129-.111.3.047-.18-.034.045.116-.3,2.2-5.066,1.831-4.971,4.579-10.117.5-.93,1.082-1.889,1.717-2.848C23.377,42.992,22.788,43.951,22.291,44.881Zm-9.826,8.611c-.658-.219-.4-.605-.647-1.029a0,0,0,0,0,0,0C12.067,52.889,11.808,53.279,12.465,53.492Zm2.7-6.8-2.7,6.8,2.7-6.8c.109-.242.29-.633.512-1.1C15.453,46.063,15.272,46.453,15.16,46.7Zm.223-4.355.155-.014-.155.014Zm.763-.057c.065-.018.093-.059.183-.162C16.238,42.225,16.209,42.266,16.146,42.283ZM17.792,40.4l-.631.771L17.8,40.4c.094-.064.16-.119.212-.162C17.956,40.277,17.888,40.332,17.792,40.4ZM16.3,38.656c0,.021.016.1.016.117l1-.164h0l-1,.164c0-.016-.011-.1-.011-.111a1.876,1.876,0,0,1,.016-.3h0A2,2,0,0,0,16.3,38.656Zm-1.026.033a16.553,16.553,0,0,1,2.348-3.82A16.388,16.388,0,0,0,15.275,38.689Zm1.068-3.4.647-1.119,0,0Zm13.022-.25c.028-.033.058-.064.088-.1C29.423,34.979,29.394,35.01,29.365,35.043Zm-12.608-1a.018.018,0,0,0,0-.01.018.018,0,0,1,0,.01c0,.006-.025.012-.075.012C16.733,34.059,16.752,34.053,16.757,34.047Zm0-.01v0ZM16.417,34.031Zm2.935-4.643-.064-.027Zm-.1-.041a1.04,1.04,0,0,0-.175-.053A1.04,1.04,0,0,1,19.248,29.348Zm-.321-.045a.427.427,0,0,1,.091-.012.427.427,0,0,0-.091.012.375.375,0,0,1-.117.018A.361.361,0,0,0,18.927,29.3Zm-.615-2.689a20.467,20.467,0,0,0,2.111-.17h0A20.512,20.512,0,0,1,18.312,26.613Zm-2.05-2.062c.128-.2.191-.4.031-.572C16.451,24.148,16.389,24.348,16.262,24.551Zm27.957-2.057c.02-.025.04-.051.059-.072C44.257,22.443,44.238,22.471,44.219,22.494Z" transform="translate(5849.784 9859.879)" fill="url(#linear-gradient-2)"/>
    <path id="União_30" data-name="União 30" d="M5.369,92.152c.144-.328.111-.27.255-.615l.685-1.475c.51-1.221,2.961-7.984,3-8.914a9.2,9.2,0,0,0,.435-1.521l.61-2.844a4.626,4.626,0,0,1,.212-.652l.255-.531h0a7.987,7.987,0,0,1,.34-2.324l.393-2.213c.376-1.527.164-2.572.779-3.979l.006-.008c0-2.164.414-2.828.435-4.752.017-1.729.43-2.377.43-4.408,0-1.459.663-6.074.653-7.922v-2.6l.086.223-.086-.227c.642-1.672.212-13.27.212-16.014,0-2.281.159-6.684-.658-8l-2-3.416c-.4-.7-.524-.621-.424-1.354-.53-.256-.478-.133-1-1.119L0,0C1.38.117,8.659,4.643,10.282,5.518c2.361,1.279,5.057,3.146,7.37,4.531.467.281.774.445,1.22.717.774.467.689.309,1.035,1.088.721-.1.4-.117,1.056.287l9.857,7.023c.8.594,2.255,1.412,2.722,2.4a.979.979,0,0,1-.864-.393c-.1.754-.017.18-.276.625-.466.8-.536,1.318-.861,1.3.325.023.4-.494.866-1.291.255-.451.17.123.271-.625a1,1,0,0,0,.87.393,4.479,4.479,0,0,1,2.594,2.223,1.413,1.413,0,0,0,.329-.066c-.014.018-.013.074.218.193.445.223.17.111.355.266.377.307.456.414.827.705.579.451.924.838,1.5,1.316l.823.7A10.2,10.2,0,0,1,42.2,29.117a5.3,5.3,0,0,0-1.271,1.574A5.258,5.258,0,0,1,42.2,29.123l1.92,1.629c1.044,1.1,4.67,4.912,5.213,6.25h0l.849.881c.026.037.069.084.1.121l1.66,2.451a3.515,3.515,0,0,1,.643,1.529c.238.074.159-.033.482.375l1.926,4.166c.276.918.255.307-.063,1.242L53.57,51.629c-1.23,3.248-2.063,4.611-3.273,7.328A65.108,65.108,0,0,1,46.4,65.662c-.552.9-.854,1.311-1.39,2.074l-2.939,3.99a86.832,86.832,0,0,1-6.643,7.422l-7.608,6.457A76.046,76.046,0,0,1,19.3,91.15,77.131,77.131,0,0,1,4.8,97.428c-.844.232-1.725.609-2.637.822C2.207,97.654,4.536,94.078,5.369,92.152Zm9.739-14.141a74.8,74.8,0,0,0,6.958-4.863A75.193,75.193,0,0,1,15.108,78.012Zm-4.173-2.574c0,.01-.008.016-.011.016S10.931,75.447,10.936,75.438Zm-.017.008s0-.006-.006-.006S10.917,75.441,10.919,75.445Zm1.926-9.23c-.1.18-.105.205-.255.467.149-.262.152-.287.255-.463a2.639,2.639,0,0,1,.8-.865A2.622,2.622,0,0,0,12.845,66.215ZM24.221,64.9l-.059.061.059-.061Zm-7.147-2.389a23.561,23.561,0,0,1-1.88,1.7,23.741,23.741,0,0,0,1.88-1.7c.982-1,1.687-1.709,2.237-2.271C18.76,60.811,18.056,61.521,17.073,62.516Zm8.256,1.125Zm9.826-2.934c-.041.035-.072.061-.107.086.037-.025.069-.051.112-.086a4.692,4.692,0,0,0,.821-.842A4.738,4.738,0,0,1,35.155,60.707Zm-3.565-2.93a2.186,2.186,0,0,0-.376.572,2.2,2.2,0,0,1,.381-.576c.042-.051.087-.1.133-.146C31.68,57.676,31.634,57.727,31.59,57.777Zm2.658-2.1a2.8,2.8,0,0,1-.368.4A2.8,2.8,0,0,0,34.248,55.682ZM36.02,53.99Zm5.6-.311a2.047,2.047,0,0,0,.634-.553A2.114,2.114,0,0,1,41.621,53.68Zm3.407-3.93c-.339.674-.074.318-.609.748-.941.76-.923.4-1.686,1.807.763-1.4.744-1.047,1.686-1.8.535-.436.271-.08.609-.748.238-.469.359-.762.482-.988C45.388,48.994,45.267,49.285,45.028,49.75Zm-30.7-1.385c.425-2.322-.451-3.963,1.295-5.91l2.037-1.432c1.507-1.146,1.077-.891,1.39-.738a3.725,3.725,0,0,1,.379.2s0,0,0,0h0c.424-1.445,1.13-2.652,1.636-4.268.4-1.268,1.178-1.687,2.959-2.879a.029.029,0,0,0,0-.008c-1.782,1.2-2.567,1.619-2.955,2.881-.506,1.621-1.218,2.826-1.637,4.273a3.538,3.538,0,0,0-.38-.2c-.312-.154.112-.4-1.39.742l-2.043,1.428c-1.74,1.951-.864,3.592-1.289,5.91-.051-.051-.13-.184-.16-.164v0a.012.012,0,0,1,.008,0C14.205,48.2,14.282,48.318,14.325,48.365Zm33.2-1.246c-.56.371-.945.627-1.224.828.279-.2.667-.457,1.229-.828.115-.078.217-.139.312-.2C47.743,46.98,47.639,47.041,47.522,47.119Zm-17.347.715h0Zm.025,0a2.794,2.794,0,0,0,1.52-.469A2.814,2.814,0,0,1,30.2,47.832Zm19.9-3.344c-.562.527-.9.863-1.095,1.086.2-.223.535-.559,1.1-1.086l.646-.648Zm-6.451-1.057a5.811,5.811,0,0,1-.7.605c-.593.422-.8.615-.9.816.1-.2.312-.395.9-.816a5.811,5.811,0,0,0,.7-.605Zm-20.485.961-.557.307.563-.307c.042-.021.1-.053.143-.074C23.266,44.34,23.212,44.371,23.164,44.393ZM51.753,42.9a.089.089,0,0,1,.013-.01h0A.089.089,0,0,0,51.753,42.9Zm.236-.471a3.366,3.366,0,0,0-.186.3,3.277,3.277,0,0,1,.191-.3c.272-.408.088-.447.29-.447h0C52.083,41.982,52.268,42.021,51.989,42.43Zm-5.454-1.051a2.058,2.058,0,0,0,.254-.785A2.136,2.136,0,0,1,46.535,41.379Zm-9.216-1.23c-.108.354-.2.666-.291.945.087-.277.183-.59.291-.941l1.327-4.547ZM19.393,40.6c.007-.025.014-.049.021-.074h0v0c-.039-.006-.091-.018-.142-.029s-.123-.027-.149-.031c.027,0,.084.018.144.031s.107.025.147.031c-.007.023-.014.047-.02.07-.171-.07-.252-.105-.278-.121A2.53,2.53,0,0,0,19.393,40.6Zm28.969-1.658a5.476,5.476,0,0,0,.131-.914A5.8,5.8,0,0,1,48.361,38.945Zm.307-1.5ZM24.241,33.93c.361-.287.647-.562,1.072-.854l.52-.3.117-.049c-.027.012-.091.033-.122.049l-.515.3c-.422.283-.707.559-1.075.842Zm-.068-.254a1.711,1.711,0,0,1-.065-.193A1.564,1.564,0,0,0,24.173,33.676Zm-.069-.229h0l0,0Zm1.864-.73h0Zm.017,0,.008,0ZM26,32.707a.348.348,0,0,1,.126,0c.153.012.249.027.467-.863.063-.244.111-.574.144-.748l.552-2.973c.217-.885.116-.3.053-1.283.175-1.209,2.032-.328,2.181-3.385,1.369-.4.817.016,1.141-1.088.188.4.055.254.262.385-.208-.137-.072.016-.262-.391-.323,1.109.229.691-1.141,1.094-.148,3.051-2.006,2.17-2.186,3.385.068.982.169.393-.048,1.283l-.552,2.973c-.032.17-.085.5-.144.742-.218.891-.313.875-.467.865h-.038A.358.358,0,0,0,26,32.707ZM10.967,17.891l.021.717-.021-.717Zm0,0c.26-.154.292-.2.663-.393C11.253,17.7,11.227,17.736,10.967,17.891Zm1.913-.652.009,0Zm.036-.012.014-.006Zm.038-.014.029-.012Zm.039-.016.043-.018Zm3.391-2.973a1.044,1.044,0,0,0-.113.438,1,1,0,0,1,.119-.437.437.437,0,0,1,.353-.164h0A.447.447,0,0,0,16.384,14.225Zm1.958-.838.061-.051-.066.051c-.7.6-1.083.684-1.348.684C17.252,14.07,17.631,13.994,18.342,13.387ZM36.471,23.725C36.479,23.715,36.49,23.717,36.471,23.725Z" transform="translate(5941.34 9910.229)" fill="url(#linear-gradient-3)"/>
    <path id="União_29" data-name="União 29" d="M37.34,71.287a82.191,82.191,0,0,1-10.535-3.1c-.9-.322-1.558-.641-2.443-1.016L19.6,65.014c-1.293-.779-3.922-1.967-5.47-2.975L10.976,60a75.5,75.5,0,0,1-7.568-5.85,7.455,7.455,0,0,0-.953-.789c-.832-.668-.509-.7-.509-.779-.7-.287-.244-.031-.843-.467A2.8,2.8,0,0,1,0,50.635c2.136,1.023,11.235-.449,14.118-1.021,1.182-.238,3.338-1.055,4.276-.705.609-.77,5.215-1.844,6.089-2.137,1.007-.334,1.892-.588,2.9-.984,1.483-.572,2.093-1.045,2.909-.775.435-.588-.026-.127.562-.514l4.271-1.791c.986-.439,4.055-1.912,4.9-1.924h0l.646-.541c.143-.084.354-.18.583-.285l3.82-1.8c.949-.477,1.648-.811,2.6-1.3l7.3-3.957c4.632-2.672,8.627-4.9,13.18-7.812,2.231-1.43,1.474-.8,2.453-2.3L73.016,18.7c.144-.266.238-.445.382-.7l1.621-2.852L81.755,3.635c.4-.727.667-1.246,1.081-1.945C83.244,1.021,83.4.406,83.959,0c.482,1.006.218,3.158.218,4.547,0,4.021.344,2.7.011,6.719l-.011,4.748c.042,2.449.084,1.943-.36,2.16v0c.566,2.121.068,5.041-.063,6.938a34.332,34.332,0,0,0-.218,3.455c0,.906.1,2.428-.642,3.025.731,2.014-.3,4.176-.429,5.861-.1,1.293-.19,1.713-.36,2.883-.085.553-.059,1.039-.154,1.564a5.274,5.274,0,0,1-.228.7.743.743,0,0,0-.1.271c-.059.039-.14.1-.252.189v.006c.481,1.25-.106,2.125-.345,3.338a41.321,41.321,0,0,1-1.415,5.936c-.281.875-.339,2.273-1.055,2.84.345,1.416-1.044,2.682-1.081,4.547a2.187,2.187,0,0,1-.65.213h0c.35.838-.2,1.377-.98,3.137a35.46,35.46,0,0,1-3.35,5.951c-1.728,2.6-1.33,2.141-4.2,2.725a70.9,70.9,0,0,1-13.984,1.32A79.86,79.86,0,0,1,37.34,71.287Zm20.114-9.977c1.785-.072,3.563-.207,5.318-.395C61.016,61.1,59.24,61.238,57.454,61.311Zm5.318-.395c.754-.082,1.307-.137,1.722-.172C64.079,60.779,63.526,60.834,62.772,60.916Zm6.926-.223a7.8,7.8,0,0,1-1.762.209A7.639,7.639,0,0,0,69.7,60.693Zm-4.928.029c.284-.02.49-.029.651-.029h0C65.261,60.693,65.055,60.7,64.771,60.723Zm-29.916-6.24,5.766,1.049-5.761-1.049c-.245-.061-.483-.115-.715-.166C34.374,54.367,34.61,54.422,34.854,54.482Zm43.7.7.17-.947h0ZM21.319,50.074,27.261,53.2a4.65,4.65,0,0,0,.506.205,4.576,4.576,0,0,1-.5-.205l-5.946-3.127Zm-9.714,3.285a3.179,3.179,0,0,0-1.026-.111c.053,0,.107,0,.166,0A3.427,3.427,0,0,1,11.605,53.359Zm-1.243-.105a2.507,2.507,0,0,1-1.014-.244A2.521,2.521,0,0,0,10.362,53.254ZM1.887,52.225l.059.361-.059-.361Zm1.736.09a11.822,11.822,0,0,0-1.364-.09A11.822,11.822,0,0,1,3.623,52.314Zm-1.736-.09h0Zm54.893-2.457c-1.342.018-2.173.236-3.714.236C54.609,50.006,55.437,49.785,56.779,49.768Zm.132,0c7.45-.025,17.313-3.3,23.985-7.164C74.224,46.459,64.361,49.734,56.911,49.766ZM20.1,49.307a3.194,3.194,0,0,0-.483-.256A3.194,3.194,0,0,1,20.1,49.307Zm-.5-.264-.012-.006Zm13.441-3.092a7.719,7.719,0,0,0-2.74-.939l.08,0A8.47,8.47,0,0,1,33.037,45.951Zm47.888-3.367c.592-.34.292-.082.443-.332C81.211,42.5,81.517,42.244,80.925,42.584ZM44.907,41.6a47.052,47.052,0,0,0,8.548.822,47.052,47.052,0,0,1-8.548-.822l-.416-.076Zm-1.05-.2-.618-.121ZM82.878,16.852c.114-.154.313-.49.4-.619-.09.129-.288.465-.407.619Zm-3.487-.186c.084,0,.178-.008.282-.008l-.3,0c-.306.012-.493.021-.585-.076C78.881,16.688,79.074,16.676,79.391,16.666Zm3.906-.455c.5-.68-.057-.377.648-.59C83.24,15.834,83.787,15.531,83.3,16.211ZM83.98,15.611Zm-4.785-.2c0-.021.011-.041.016-.062C79.206,15.373,79.2,15.393,79.2,15.414ZM81.62,42.873c.148-.1.141-.059.1-.018a.152.152,0,0,1-.08.049C81.629,42.9,81.62,42.895,81.62,42.873Z" transform="translate(5869.131 9938.174)" fill="url(#linear-gradient-4)"/>
    <path id="União_28" data-name="União 28" d="M22.591,71.627h0c-1.907.736-3.264-.609-3.895-2.162l.36.08v0l-.36-.078c-.9-.025-5-6.082-5.569-6.984-.021-.037-.053-.094-.079-.137-.164-.271-.26-.451-.493-.807-.445-.687-.752-.959-1.145-1.668L6.9,51.395a8.156,8.156,0,0,1-.381-.916c-.239-.582-.562-1.24-.869-1.945L1.162,33.113C.982,32.393.918,31.334.8,30.66A78.2,78.2,0,0,1,1.7,3.344L2.471,0c.466.344.625.906,1.224,2.02A34.614,34.614,0,0,0,6.848,6.889a2.846,2.846,0,0,1,.3.508,1.422,1.422,0,0,0,.089.186,1.334,1.334,0,0,0,0,.207l6.173,6.8c.414.467,1.579,1.229,1.616,1.85A34.3,34.3,0,0,1,19.2,20.057c.365.387.28.238.365.5l2.12,1.568a1.021,1.021,0,0,1,.243.35l.117.25h0c.925.2.5.123,1.176.672l6.29,4.949c.228.848.439.441.779,1.846a46.7,46.7,0,0,0,3.11,8.959A46.6,46.6,0,0,1,30.3,30.184c-.345-1.4-.551-.992-.778-1.84l14.65,9.7c-.006-.035-.007-.057,0-.059s.029.016.075.1h0c.056.1.144.291.276.6-.132-.309-.219-.5-.273-.6l16.167,8.918.148.068c.042.021.095.053.143.074,1.955.822,23.963.234,27.9.234-.641.869-13.889,8.6-16.363,9.617l-5.569,2.867c-1.547.768-6.74,3.449-8.15,3.529l0,0-.008.008c-.106.34.19.018-.3.361-.011.01-.387.191-.419.2-1.643.705-6,2.607-7.281,2.682l.036-.041c-.014.016-.027.029-.041.047-.069.2.09.2.133.189a7.591,7.591,0,0,0-.731.275l-5.893,1.914a36.964,36.964,0,0,1-5.84,1.516v-.006c-2.846,1.266-10,1.447-13.646,1.525-.537.012-.921.02-1.2.02C22.367,72.086,22.744,71.99,22.591,71.627Zm4.907-.711a2.443,2.443,0,0,0-.257-.68A2.623,2.623,0,0,1,27.5,70.916ZM41.79,66.709l2.41,1.7v0l-2.417-1.705c-.5-.395-.864-.705-1.127-.951C40.92,66,41.285,66.313,41.79,66.709Zm-5.947.6c-.068-.24.05-.383-.107-.754C35.891,66.92,35.771,67.063,35.843,67.3Zm-9.632-.818a8.282,8.282,0,0,1-.877-2.014A8.243,8.243,0,0,0,26.211,66.486Zm25.369-.479L51.636,66Zm-3.237-2.176c-.125-2.055-.062-1.236-1.37-2.3C48.281,62.6,48.218,61.779,48.343,63.832Zm-9.267-.684c.042.039.081.074.119.111-.04-.039-.081-.076-.124-.117-.109-.1-.175-.152-.217-.186C38.9,62.992,38.963,63.045,39.076,63.148Zm19.664.006c.006-.006.011-.014.017-.02S58.745,63.148,58.74,63.154Zm.018-.021a.122.122,0,0,1,.017-.016A.122.122,0,0,0,58.758,63.133Zm-6.513-5.84,2.787,1.58c.026,1.584.487,2.277,1.547,2.781a15.9,15.9,0,0,0,2.9,1.156l-.663.27.668-.27a15.891,15.891,0,0,1-2.9-1.156c-1.06-.5-1.526-1.2-1.548-2.781l-2.787-1.58c-.041-.053-.074-.07-.1-.07C52.175,57.225,52.207,57.242,52.245,57.293ZM24.578,61.639a3.111,3.111,0,0,1,.575.855,3.083,3.083,0,0,0-.575-.861c-.832-.959-.2-.594-1.118-3.221C24.382,61.045,23.741,60.68,24.578,61.639Zm13.974.318Zm6.067-3.916c3.292,2.654.726,2.084,2.237,3.389-1.512-1.3,1.06-.734-2.231-3.395-2.5-2.016-2.041-2.281-2.1-3.279C42.584,55.754,42.121,56.02,44.619,58.041Zm-12.19,3.105a6.228,6.228,0,0,0-.229-1.027A6.654,6.654,0,0,1,32.429,61.146ZM31.1,58.316a4.083,4.083,0,0,0,.522.865,4.1,4.1,0,0,1-.518-.859l-.419-.865Zm-7.637.1a3.16,3.16,0,0,1-.229-.99A3.171,3.171,0,0,0,23.46,58.412ZM52.045,57.32a2.118,2.118,0,0,1,0-.416A1.976,1.976,0,0,0,52.045,57.32ZM30.594,57.3c-.849-1.5.427-.346-1.093-2.338C31.016,56.953,29.745,55.807,30.594,57.3ZM23.263,57.1c0-.187-.115-.459-.808-1.521C23.146,56.637,23.264,56.91,23.263,57.1Zm29.148-.965c-.035.3-.071.4-.105.4C52.34,56.535,52.376,56.434,52.411,56.135Zm-.215.174c-.014-.047-.027-.094-.041-.127C52.169,56.215,52.183,56.262,52.2,56.309ZM33.3,52.047c1.5,1.971-.323,1.893,2.024,4.25-2.348-2.357-.524-2.283-2.024-4.25ZM52.09,56.18c.009-.041.018-.059.027-.059h0C52.108,56.121,52.1,56.139,52.09,56.18Zm-5.3-6.459c.281,1.172.45.764,1.06,1.42.764.811.021.514.657,1.271.885,1.045,3.837,2.428,3.933,3.414-.1-.992-3.048-2.369-3.927-3.418-.642-.754.1-.457-.657-1.268-.609-.656-.779-.248-1.06-1.42a1.146,1.146,0,0,1-.048-.244h0C46.739,49.477,46.745,49.531,46.792,49.721ZM21.129,53.139l1.134,2.146-1.129-2.152a3.307,3.307,0,0,1-.058-.717A3.184,3.184,0,0,0,21.129,53.139Zm21.334,1.176c0-.016-5.91-6.566-6.687-8.111C36.553,47.748,42.458,54.3,42.463,54.314Zm-13.937-.768c.13.234.246.42.367.6-.118-.176-.233-.361-.362-.592-.159-.281-.31-.523-.448-.742C28.221,53.027,28.368,53.268,28.526,53.547Zm-7.589-4.318a7.815,7.815,0,0,1,.7,2.521,2.529,2.529,0,0,1-.061.439,2.382,2.382,0,0,0,.065-.443,8.069,8.069,0,0,0-.705-2.523,5.6,5.6,0,0,1-.249-.926A5.566,5.566,0,0,0,20.938,49.229Zm5.925.943a4.189,4.189,0,0,0,.623,1.711,4.2,4.2,0,0,1-.618-1.707,11.743,11.743,0,0,0-.954-2.76A11.785,11.785,0,0,1,26.862,50.172Zm19.877-.791.067.2C46.81,49.588,46.8,49.545,46.739,49.381Zm-1.42-2.691a4.03,4.03,0,0,0,1.044,2.051l.36.594-.36-.594a4.027,4.027,0,0,1-1.044-2.055,2.89,2.89,0,0,1-.036-1.021C45.242,45.711,45.24,45.957,45.319,46.689Zm-10.148-3c.567,1.107.154,1.5.572,2.441-.413-.937,0-1.334-.572-2.447l-.3-.572Zm9.4-4.887,1.14,6.418c-.02.406-.066.57-.123.615.06-.039.108-.2.128-.615L44.566,38.8ZM25,43.982c.133.947-.169.848-.36,1.361l0,0c.19-.51.5-.412.364-1.363a4.254,4.254,0,0,0-.175-.746A4.077,4.077,0,0,1,25,43.982Zm9.867-.869c-.426-1.129-.062-.926-.66-2.213C34.808,42.188,34.438,41.984,34.869,43.113Zm-10.091-.029,0-.01Zm-.237-.533c.086.176.164.342.231.52-.067-.176-.143-.342-.226-.52A52.61,52.61,0,0,1,20.076,27.7,52.63,52.63,0,0,0,24.541,42.551ZM16.55,32.129c.352,1.438.8,2.953,1.166,4.406-.361-1.453-.812-2.969-1.16-4.412-1.646-6.795-1.1-9.627-1.506-15.27C15.458,22.5,14.91,25.334,16.55,32.129Zm3.5-4.648c-.129-1.287-.322-2.354-.416-3.361C19.726,25.125,19.919,26.2,20.053,27.48ZM7.756,11.238A17.865,17.865,0,0,0,7.23,7.789,18.107,18.107,0,0,1,7.756,11.238ZM7.233,7.582c.01-.074.031-.039.038,0,0,.02,0,.041,0,.041S7.25,7.609,7.233,7.582Z" transform="translate(5846.129 9914.77)" fill="url(#linear-gradient-5)"/>
    <path id="União_31" data-name="União 31" d="M84.359,69.1l-3.206-4.807a10.309,10.309,0,0,1-1.589-2.162c-.207-.777.461-6.273.455-8.436.006,2.162-.667,7.658-.455,8.441l-.97-.916a7.851,7.851,0,0,1-.689-.816c-.879-1.154-3.529-3.518-4.764-4.891a2.446,2.446,0,0,0,.205-.852,2.427,2.427,0,0,1-.205.846c-.5-.461-.763-.795-1.24-1.213l-2.687-2.3c-.651-.547-.6-.5-.614-.891a48.842,48.842,0,0,1-.365-4.977A65.912,65.912,0,0,0,66.11,35.054c-.3-.922-.52-1.07-.2-1.346l.254-.143c-.121-4.885-1.394-4.271-1.441-6.523l-.021-.309.021.309c.048,2.252,1.314,1.639,1.437,6.523l-.254.143c-.318.275-.1.424.2,1.346a65.912,65.912,0,0,1,2.125,11.064c.095,1.4.105,3.646.36,4.977-1.039-.186-.642-.111-1.357-.811a10.332,10.332,0,0,0-.948-.773,7.072,7.072,0,0,1-1.8-1.664v0c-.715-.291-.117-.014-.693-.367-.831-.51-2.877-2.363-3.412-2.443l-.3-1.574c-.97-3.719-.864-5.213-2.623-9.828-.329-.859-.689-1.766-1.05-2.613-.222-.52-.7-1.35-.982-2.018.275.668.757,1.5.982,2.018.36.848.716,1.754,1.044,2.613,1.765,4.615,1.653,6.1,2.623,9.828l.308,1.574c-.625-.693-8.944-6.592-9.745-6.709a.266.266,0,0,0,.028-.037.266.266,0,0,1-.028.037c-.535-.7-.413-.492-1.07-.885l-7.619-4.7c-.271-.154-.255-.117-.567-.3l-7.1-4.281a4.021,4.021,0,0,1-.028-1.836,3.955,3.955,0,0,0,.028,1.836,11.024,11.024,0,0,1-3.259-1.584c-5.177-2.895-5.1-1.877-12.187-1.877H0c.721-1.074,6.306-4.027,7.79-4.98.439-.275.651-.355,1.112-.615.329-.186.583-.371.943-.572L26.771,9.912c1.441-.727,5.474-2.66,6.661-2.744-.578.889.048.693-.138,2.441.19-1.748-.435-1.553.138-2.441.132-.176.053-.133.429-.346L42.419,3.7A1.9,1.9,0,0,1,42,4.341a1.822,1.822,0,0,0,.414-.641c.481-.211,1.462-.461,1.976-.619.684-.223,1.277-.377,2.014-.584a16.45,16.45,0,0,1,4.324-.959c-.477.371.53.064-.625.43,0,0,0,0,0,0,1.155-.367.153-.062.63-.434.688-.6,6.47-1.244,7.243-1.318a38.8,38.8,0,0,1,4.133-.2c.727,0,1.441,0,2.173-.016,2.034-.037,1.563.059,1.72.445A2.438,2.438,0,0,1,67.986.416c.673.324.1-.021.588.5l1.807,2.1c.393.582.085-.055.382.688l-.562.287a1.121,1.121,0,0,0-.313.809,1.11,1.11,0,0,1,.313-.8l.566-.291c.636.207,2.7,3.254,3.121,3.8a45.578,45.578,0,0,1,2.761,4.166,74.4,74.4,0,0,1,4.934,9.193c1.483,2.3,4.149,11.34,4.849,14.127a30.01,30.01,0,0,1,.991,5.271h0c1.086,4.76.832,10.832.869,16.676a51.043,51.043,0,0,1-.837,8.039c-.2,1.225-.414,2.512-.679,3.646-.323,1.367-.36,2.713-1.086,3.242A9.132,9.132,0,0,0,84.359,69.1ZM81.032,45.048Zm.907-.1h0a.661.661,0,0,0-.1-.006A.652.652,0,0,1,81.939,44.945Zm-2.078-.357ZM82.85,43.7c-.007-.248-.022-.428-.039-.566a5.5,5.5,0,0,1,.033.563S82.848,43.7,82.85,43.7Zm-.021-1.182-.012.025.012-.025Zm.9-.322Zm0-.066c0-.109,0-.2-.008-.281C83.719,41.931,83.722,42.023,83.723,42.132Zm.263-1.061a3.476,3.476,0,0,0-.452-.15h0A4.193,4.193,0,0,1,83.985,41.072Zm.751-.23Zm.307-.783ZM72.087,38.543a.01.01,0,0,1,0,0c.021-.018.058-.059.072-.059h0C72.145,38.488,72.109,38.529,72.087,38.543Zm.239-.139c.037-.016.072-.029.1-.041-.032.012-.067.025-.1.041-.145.059-.154.113-.155.113S72.182,38.462,72.326,38.4Zm-.159.09a.049.049,0,0,1,0,.012.049.049,0,0,0,0-.012Zm0,0s0,0,0,0S72.164,38.488,72.164,38.49Zm.691-.154a.147.147,0,0,0,.106.045.143.143,0,0,1-.1-.045.224.224,0,0,0-.137-.041A.2.2,0,0,1,72.855,38.336ZM50.746,38a1.515,1.515,0,0,0-.326-.76A1.551,1.551,0,0,1,50.746,38Zm-.326-.76c-.111-.17,0,.09-.255-.387C50.415,37.334,50.3,37.068,50.42,37.238Zm23.368-.211h0Zm1.033-3.074.657.244s0-.006,0-.008l-.655-.236c-.137-.066-.165-.092-.166-.1C74.656,33.861,74.685,33.886,74.821,33.953Zm-1.394.031c.032.055.085.111.535-.078.017-.006.069-.043.085-.049l.461-.068a.762.762,0,0,1,.158.051.762.762,0,0,0-.158-.051l-.461.064a.87.87,0,0,1-.085.053c-.445.186-.5.133-.535.074-.018-.031-.028-.062-.1-.049a.148.148,0,0,1,.028,0C73.4,33.929,73.41,33.957,73.428,33.984Zm-.26.018ZM49,33.916c-.8-1.73-1.522-2.326-1.566-4.631C47.478,31.589,48.2,32.185,49,33.916Zm-.922-3.777V27.425c-.266-.764-1.028-.912-.827-2.252a1.078,1.078,0,0,1,.3-.732,1.053,1.053,0,0,0-.309.732c-.2,1.34.562,1.488.826,2.252l.006,2.713-.646-1.082Zm12.728-1.326Zm12.845-.873.854-.43ZM54.028,22.962c.159,1.246.885,1.3,1.055,2.416a22.066,22.066,0,0,1,.091,2.5,22.026,22.026,0,0,0-.086-2.5c-.169-1.117-.9-1.164-1.06-2.416Zm22.59,4.129c-.811-.2-.906-.572-1.468-1.061C75.712,26.523,75.808,26.89,76.618,27.091Zm-11.144-.08c-.218-1.643-1.17-2.35-.834-2.564h0c-.342.215.616.922.834,2.564Zm8.812-.52a.679.679,0,0,0,.833-.377.674.674,0,0,1-.833.371c-.069-.01-.126-.021-.172-.031,0,0,0,0,0,0C74.162,26.47,74.219,26.48,74.286,26.492Zm.84-.393Zm0-.012,0,0Zm0-.006.008-.023Zm.008-.023,0-.016Zm-40.522-.223a.427.427,0,0,0-.013.139.448.448,0,0,1,.013-.139.938.938,0,0,0,.021-.137A1.1,1.1,0,0,1,34.618,25.836Zm42.09-.271-.254.1c-.037.016-.181.123-.25.148.069-.025.213-.133.25-.148l.254-.1Zm.567.033,0-.006a1.045,1.045,0,0,0-.543-.031.569.569,0,0,1,.145-.02A2.12,2.12,0,0,1,77.275,25.6Zm-11.764-.748c-.029-1.756-.521-1.818-.771-2.686.249.867.741.93.771,2.686Zm-31.265-1.5c.553.525.75.68.751,1.031,0-.354-.2-.508-.751-1.031Zm13.688,1.027Zm-.059-.742a2.364,2.364,0,0,1,.248.672,2.332,2.332,0,0,0-.248-.678c-.324-.7-.528-.568-.525-.982C47.348,23.06,47.552,22.929,47.876,23.63Zm29.379.637c-.023,0-.166-.049-.647-.17v0C77.1,24.222,77.238,24.269,77.255,24.267ZM51.331,11.285a3.725,3.725,0,0,1-.153.6l-.345.473c.292.455.721.773.891,1.1.778,1.453-1.028.906.789,2.895,1.245,1.355-1.1.508,1.489,4.34,1.022,1.5.037,2.188.026,2.277.016-.09,1-.773-.021-2.277-2.591-3.826-.249-2.984-1.488-4.34-1.817-1.988-.017-1.441-.795-2.895-.164-.318-.594-.641-.885-1.092l.344-.477a5.516,5.516,0,0,0,.154-.594.754.754,0,0,0-.132-.328A.722.722,0,0,1,51.331,11.285ZM33.693,22.867a5.873,5.873,0,0,1-.767-.691A5.561,5.561,0,0,0,33.693,22.867Zm26.874-.094Zm16.83-.447a.269.269,0,0,1-.08-.01v0A.535.535,0,0,0,77.4,22.326Zm.205-.039,0,0ZM78.017,22a1.193,1.193,0,0,1-.408.281,1.19,1.19,0,0,0,.408-.275.093.093,0,0,0,.035-.068A.094.094,0,0,1,78.017,22Zm-12.5.254a1.016,1.016,0,0,1-.185.006A.671.671,0,0,0,65.512,22.257Zm0,0c.021-.062.047-.232.047-.2v0S65.53,22.195,65.512,22.257Zm.057-.234a.19.19,0,0,1-.009.037A.19.19,0,0,0,65.568,22.023Zm13.455-.1v0c-.424-.174-.287-.217-.314-.207C78.705,21.716,78.649,21.767,79.023,21.92ZM65.2,20.753l.393,1.107L65.2,20.753c-.016-.031-.068-.08-.1-.127C65.13,20.673,65.178,20.722,65.2,20.753ZM32.87,21.824l-.085.029.09-.029a.756.756,0,0,0,.453-.734A.757.757,0,0,1,32.87,21.824ZM47.6,21c-.014.078-.027.154-.041.227.014-.072.027-.148.041-.227.2-1.066.069-.127-.09-.955C47.664,20.871,47.792,19.931,47.6,21Zm-12.871-.1c-.069.113-.111.178-.142.223.031-.045.075-.109.147-.223a1.168,1.168,0,0,1,.116-.176A1.139,1.139,0,0,0,34.729,20.9Zm32.859.18a4.673,4.673,0,0,0-.991-2.447,4.673,4.673,0,0,1,.991,2.447Zm-34.044-.143c-.062-.041-.129-.086-.2-.139a.006.006,0,0,0,0,0C33.416,20.855,33.482,20.9,33.545,20.939Zm32.239-.621,0,0c-.185.3-.11.48-.233.48C65.671,20.795,65.6,20.617,65.784,20.318Zm-30.872.4-.008.016A.093.093,0,0,0,34.912,20.716Zm12.551-1.781a3.863,3.863,0,0,0,.048,1.107,3.839,3.839,0,0,1-.042-1.107c0-1.156.161-1.146-.373-1.719C47.63,17.789,47.473,17.779,47.463,18.935Zm-13.607.256a4.419,4.419,0,0,1,.935.838,4.378,4.378,0,0,0-.93-.844c-1.255-.937-1.4-1.152-1.273-1.262C32.464,18.033,32.6,18.25,33.855,19.191Zm34.8-.906A3.855,3.855,0,0,0,68,16.662c-.717-1.355-.937-1.469-.931-1.652-.006.184.214.3.931,1.652a3.855,3.855,0,0,1,.651,1.623,3.249,3.249,0,0,1-.354-.172,2.036,2.036,0,0,0,.354.172Zm-.328-.17.029,0-.029,0Zm-.652-.164c.186-.1.167-.17.175-.18h0C67.833,17.771,67.868,17.849,67.673,17.951Zm-34.917-.117a.7.7,0,0,0,.086-.053A.7.7,0,0,1,32.756,17.834Zm.181-.154c.447-.535.29-.322.336-.783C33.221,17.357,33.384,17.144,32.937,17.679Zm.336-.783c.1-.963-.369-.971-.558-1.479l-.01-.006C32.891,15.925,33.368,15.931,33.272,16.9ZM43.8,13.658c1.07,1.012,1.908,2.125,2.979,3.223-1.065-1.1-1.908-2.211-2.973-3.223.231-.893.416-.59.277-1.205C44.218,13.068,44.032,12.765,43.8,13.658ZM58.7,15.464v0a5.787,5.787,0,0,0-.821-.41v0A5.941,5.941,0,0,1,58.7,15.464ZM32.276,12.55a12.018,12.018,0,0,1,2.554,1.578,12.1,12.1,0,0,0-2.554-1.578ZM67.34,13.9c-.011.043-.011.111-.017.154.006-.043.011-.111.021-.154a2.88,2.88,0,0,0,.05-.43h0l0,0A3.221,3.221,0,0,1,67.34,13.9Zm-.255-2.617c.376.414.652.938,1.028,1.34-.376-.4-.652-.926-1.022-1.34-.218-.551.212-.312.535-.551C67.3,10.966,66.868,10.728,67.085,11.279Zm-34.8,1.184c.071-.662.3-.873.3-1.205C32.577,11.589,32.355,11.8,32.284,12.462Zm12.772-.219a1.758,1.758,0,0,0-.025-1.193A1.821,1.821,0,0,1,45.057,12.244Zm-1.043-.064ZM58.5,11.5ZM32.58,11.257Zm12.451-.207c-.34-.662-.657-.387-1.452-1.574C44.368,10.664,44.687,10.388,45.031,11.05Zm6.169-.1c0-.006-.009-.014-.014-.02S51.2,10.947,51.2,10.953Zm-.026-.037-.009-.012Zm-.563-.781a4.372,4.372,0,0,0,.546.758,4.562,4.562,0,0,1-.546-.758Zm18.488.641c.056-.047.128-.174.159-.176h0C69.223,10.6,69.15,10.728,69.1,10.775Zm.328-.334c-.027.043-.11.168-.147.17C69.318,10.613,69.4,10.484,69.427,10.441Zm.028-.041c.575-.846.042-.086.434-1.385C69.492,10.314,70.03,9.554,69.455,10.4ZM59.272,9.984c-.02,0-.034-.016-.057-.029C59.238,9.97,59.254,9.984,59.272,9.984Zm-.057-.029a.172.172,0,0,0-.1-.029A.183.183,0,0,1,59.216,9.955Zm-7.784-.408a1.086,1.086,0,0,1-.218.24,1.126,1.126,0,0,0,.224-.24c-.229-.27-.312-.334-.414-.471C51.124,9.212,51.2,9.279,51.432,9.546Zm-7.853-.07c-.19-.289-.128-.363-.072-.387C43.449,9.109,43.379,9.179,43.579,9.476Zm-.026-.4c.02-.006-.056-.016-.478-.189C43.45,9.045,43.55,9.07,43.553,9.078Zm-.478-.189c.04-.457.043-.57.051-.57h0C43.118,8.318,43.115,8.431,43.075,8.888ZM50.77,8.677Zm-7.625-.309a.332.332,0,0,1-.014-.041A.332.332,0,0,0,43.145,8.369Zm7.408-1.531c.492,1.23.71.467,1.064,1.41-.35-.943-.566-.18-1.06-1.41.425-.518-.031-.609.339-.609h0C50.523,6.228,50.985,6.32,50.553,6.837ZM70.023,8.181a.106.106,0,0,0,0-.018h0A.106.106,0,0,1,70.023,8.181ZM44.506,8.168Zm15.939-.025a1.725,1.725,0,0,0,.279.023,1.891,1.891,0,0,1-.273-.023,1.761,1.761,0,0,0-.229-.023A2.014,2.014,0,0,1,60.445,8.142Zm9.673-.023.119-.059ZM43.832,8.107l.008,0ZM43.89,8.1a.025.025,0,0,1,.012,0A.025.025,0,0,0,43.89,8.1ZM70.35,8l.35-.182v0Zm.349-.3c0-1.227.233-1.848.233-3.09C70.927,5.851,70.7,6.472,70.7,7.7Zm-26.23,0c-.294-1.721-2.188-1.789-3.347-3.18a.007.007,0,0,1-.006,0C42.277,5.9,44.174,5.972,44.468,7.693ZM51.353,6.24Zm9.289-.324c-.479-.244-.512-.375-.6-.371C60.123,5.548,60.17,5.679,60.642,5.916ZM50.118,3.8c.291.148.583.322.832.439l-.419,1.293.006,0,.418-1.3c-.249-.117-.546-.291-.837-.439ZM69.9,5.222Zm-8.4-.027c-.263,0-.463-.244-.854-.365C61.028,4.951,61.229,5.195,61.5,5.195Zm8.4-.189.187-.117c.048-.029.088-.057.121-.078-.033.021-.073.049-.121.078l-.187.117Zm.5-.312s0-.006,0-.008S70.394,4.689,70.4,4.693Zm-.015-.008s.007,0,.008,0h0S70.387,4.681,70.382,4.685ZM50.118,3.8c.289-.934.416-.945.262-1.285C50.529,2.857,50.4,2.871,50.118,3.8ZM63.366.277,62.989.252h0Z" transform="translate(5911.484 9881.584)" fill="url(#linear-gradient-6)"/>
    <path id="União_34" data-name="União 34" d="M3.325,143.268c1.128-.787,2.128-1.537,3.234-2.4,3.128-2.432,3.645-3.086,6.081-5.182a92.016,92.016,0,0,0,8.2-8.672l2.2-2.777a1.839,1.839,0,0,1,.568-.424v-.006c.484-.846,1.453-2.059,2.1-2.984A91.341,91.341,0,0,0,37.431,97.07,90.487,90.487,0,0,0,22.3,13.826c-1.085-1.373-1.463-1.17-1.437-3.6.032-3.4,0-6.82,0-10.225,1.926.83,9.39,10.3,11.241,12.879A96.213,96.213,0,0,1,50.262,66.924a97.629,97.629,0,0,1-7.56,40.605,98.105,98.105,0,0,1-8.362,15.678c-1.612,2.463-3.346,4.83-5.08,7.033l-5.4,6.3a1.5,1.5,0,0,0-.22-.184,2.539,2.539,0,0,1,.22.188c-.479,1.256-.431.57-1.367,1.422-1.718,1.559-1.744,2.18-3.867,3.926L15.843,144.3c-2.782,2.521-13.022,10-15.736,10.73C.107,143.625-.909,146.236,3.325,143.268Z" transform="translate(5971.029 9864.152)" fill="url(#radial-gradient)"/>
    <path id="União_35" data-name="União 35" d="M31.693,153.672c-2.569-2.156-1.516-1.527-3.043-3.023-1.318-1.3-1.065-.4-1.574-1.656,0,0,0,0,0,0-.639-.8-1.692-1.826-2.479-2.725A96.822,96.822,0,0,1,9.9,124.389C-.866,102.492-2.83,77.76,3.906,53.932A93,93,0,0,1,9.77,38.8c3.379-7.045,4.848-8.109,7.614-13.053.569-1.414,4.449-6,5.63-7.465.521-.654.969-1.092,1.5-1.762l4.731-5c2.085-1.959,4.47-4.187,6.917-6.072C37.892,4.1,41.772.842,43.7,0V9.92c-.347.781-1.3,1.287-1.921,1.8C31.443,20.211,25.5,28.092,18.97,39.74c-.229.414-.4.729-.6,1.117-.341.664-.25.654-.767,1.08.319-1.719.08-11.266.133-14.5,0-.283.008-.516.008-.709,0,.193,0,.426-.008.709-.053,3.229.187,12.781-.138,14.5-.165.914-5.295,10.859-7.519,23.125a90.481,90.481,0,0,0,5.965,52.3c5,11.211,10.439,17.438,11.249,19.135v0c1.145.762,4.807,5.639,6.252,7.084.559.559,1.139,1.006,1.7,1.553.538.543.984,1.129,1.564,1.672,1.049.99,2.475,2.059,3.5,3.117l.006,10.51C38.409,159.85,33.524,155.209,31.693,153.672ZM27.2,148.705a9.724,9.724,0,0,0,.183-2.172A9.867,9.867,0,0,1,27.2,148.705Z" transform="translate(5824.906 9852.342)" fill="url(#radial-gradient)"/>
  </g>
</svg>
