
<svg xmlns="http://www.w3.org/2000/svg" xmlns:xlink="http://www.w3.org/1999/xlink" xmlns:svgjs="http://svgjs.com/svgjs" version="1.1" width="512" height="512" x="0" y="0" viewBox="0 0 557.226 557.226" style="enable-background:new 0 0 512 512" xml:space="preserve" class=""><g transform="matrix(-1,0,0,1,557.2277374267578,0)">
<g xmlns="http://www.w3.org/2000/svg">
	<g>
		<path d="M502.357,250.13L235.555,516.92c-4.614,4.627-12.681,4.627-17.307,0L54.869,353.54c-7.173-7.173-18.789-7.173-25.961,0    c-7.172,7.167-7.172,18.795,0,25.961l163.38,163.38c9.247,9.253,21.542,14.345,34.621,14.345s25.374-5.092,34.615-14.345    l266.795-266.79c7.173-7.167,7.173-18.795,0-25.961C521.145,242.958,509.53,242.958,502.357,250.13z" fill="#666" data-original="#666" style=""/>
		<path d="M202.036,484.955c11.946,11.952,31.322,11.952,43.274,0l266.795-266.796c13.121-13.121,19.015-38.03,13.177-55.637    l-29.719-89.597c-5.839-17.607-24.958-36.273-42.706-41.695L356.933,1.952c-17.741-5.416-42.761,0.826-55.882,13.948    L38.645,278.295c-11.946,11.952-11.946,31.322,0,43.274L202.036,484.955z M371.738,86.94c17.932-17.932,46.995-17.932,64.921,0    c17.932,17.932,17.932,46.996,0,64.927c-17.932,17.932-46.996,17.932-64.921,0C353.812,133.936,353.812,104.872,371.738,86.94z" fill="#666" data-original="#666" style=""/>
	</g>
</g>
</g>
</svg>
